<svg xmlns="http://www.w3.org/2000/svg" xmlns:xlink="http://www.w3.org/1999/xlink" viewBox="0 0 1200 240" role="img" aria-labelledby="title description">
<title id="title">矩阵理论</title>
<desc id="description">交大蓝课程页眉, 配上海交通大学校徽.</desc>
<rect width="1200" height="240" fill="#036eb8"/>
<g transform="translate(930 14) scale(2.04)" opacity="0.16">

<defs>
<clipPath id="clip-0">
<path clip-rule="nonzero" d="M 0 0 L 103.238281 0 L 103.238281 103.242188 L 0 103.242188 Z M 0 0 "/>
</clipPath>
</defs>
<g clip-path="url(#clip-0)">
<path fill-rule="evenodd" fill="rgb(100%, 100%, 100%)" fill-opacity="1" d="M 101.980469 51.621094 C 101.980469 79.390625 79.386719 101.980469 51.617188 101.980469 C 23.851562 101.980469 1.261719 79.390625 1.261719 51.621094 C 1.261719 23.855469 23.851562 1.261719 51.617188 1.261719 C 79.386719 1.261719 101.980469 23.855469 101.980469 51.621094 M 51.617188 0 C 23.15625 0 0 23.160156 0 51.621094 C 0 80.085938 23.15625 103.242188 51.617188 103.242188 C 80.082031 103.242188 103.238281 80.085938 103.238281 51.621094 C 103.238281 23.160156 80.082031 0 51.617188 0 "/>
</g>
<path fill-rule="evenodd" fill="rgb(100%, 100%, 100%)" fill-opacity="1" d="M 100.84375 51.621094 C 100.84375 78.761719 78.757812 100.84375 51.617188 100.84375 C 24.476562 100.84375 2.398438 78.761719 2.398438 51.621094 C 2.398438 24.480469 24.476562 2.398438 51.617188 2.398438 C 78.757812 2.398438 100.84375 24.480469 100.84375 51.621094 M 51.617188 1.925781 C 24.21875 1.925781 1.921875 24.21875 1.921875 51.621094 C 1.921875 79.023438 24.21875 101.320312 51.617188 101.320312 C 79.023438 101.320312 101.3125 79.023438 101.3125 51.621094 C 101.3125 24.21875 79.023438 1.925781 51.617188 1.925781 "/>
<path fill-rule="evenodd" fill="rgb(100%, 100%, 100%)" fill-opacity="1" d="M 35.929688 7.25 C 35.855469 9.105469 37.578125 8.132812 38.675781 8.046875 C 39.058594 8.019531 42.527344 6.664062 42.039062 8.089844 C 41.738281 8.972656 40.601562 8.683594 39.898438 8.761719 C 39.058594 8.859375 38.109375 9.164062 37.339844 9.515625 C 36.589844 9.863281 37.148438 10.347656 37.75 10.195312 C 38.304688 10.054688 38.824219 10.003906 39.398438 10.039062 C 40.765625 10.117188 42.207031 10.511719 43.328125 11.3125 C 43.902344 11.714844 45.535156 13.335938 44.503906 13.824219 C 43.882812 14.121094 43.027344 13.25 42.582031 12.863281 C 41.867188 12.242188 41.390625 11.6875 40.445312 11.390625 C 38.75 10.855469 37.011719 11.183594 35.664062 12.355469 C 34.441406 13.417969 33.539062 14.625 33.25 16.230469 C 33.132812 16.894531 32.847656 19.277344 31.75 18.488281 C 30.539062 17.617188 32.265625 14.78125 32.582031 14.277344 C 32.738281 14.027344 33.042969 13.6875 33.367188 13.335938 C 33.574219 13.113281 34.046875 12.558594 34.40625 12.144531 C 34.601562 11.921875 35.242188 11.3125 35.496094 11.109375 C 35.878906 10.808594 36.035156 10.273438 35.332031 10.308594 C 34.664062 10.335938 34.371094 10.730469 33.558594 11.074219 C 32.746094 11.417969 30.660156 13.335938 30.265625 12.199219 C 29.777344 10.792969 32.890625 10.226562 33.738281 9.890625 C 33.933594 9.8125 34.199219 9.71875 34.40625 9.640625 C 34.570312 9.578125 34.789062 9.433594 34.816406 9.394531 C 34.992188 9.164062 35.117188 8.835938 35.046875 8.667969 C 34.875 8.25 34.570312 7.730469 34.570312 7.296875 C 34.910156 6.988281 35.5625 6.960938 35.929688 7.25 "/>
<path fill-rule="evenodd" fill="rgb(100%, 100%, 100%)" fill-opacity="1" d="M 33.175781 64.238281 L 29.527344 62.285156 L 28.3125 64.398438 C 29.1875 64.996094 29.613281 65.898438 29.730469 66.941406 L 36.238281 70.421875 L 38.226562 66.941406 L 34.96875 65.199219 L 45.042969 46.449219 C 45.089844 46.367188 45.070312 46.292969 44.976562 46.238281 L 43.4375 45.417969 C 43.328125 45.367188 43.261719 45.394531 43.21875 45.472656 Z M 33.175781 64.238281 "/>
<path fill-rule="evenodd" fill="rgb(100%, 100%, 100%)" fill-opacity="1" d="M 39.519531 66.554688 L 39.515625 66.558594 C 39.292969 66.558594 39.109375 66.742188 39.109375 66.964844 L 39.109375 72.363281 C 39.109375 72.65625 39.351562 72.898438 39.644531 72.898438 L 65.238281 72.898438 C 65.53125 72.898438 65.773438 72.65625 65.773438 72.363281 L 65.773438 67.09375 C 65.773438 66.796875 65.53125 66.554688 65.238281 66.554688 Z M 39.191406 65.699219 L 65.652344 65.699219 C 66.191406 65.699219 66.632812 66.144531 66.632812 66.683594 L 66.632812 72.765625 C 66.632812 73.3125 66.191406 73.753906 65.652344 73.753906 L 39.191406 73.753906 C 38.65625 73.753906 38.214844 73.3125 38.214844 72.765625 L 38.214844 66.683594 C 38.214844 66.144531 38.65625 65.699219 39.191406 65.699219 "/>
<path fill-rule="evenodd" fill="rgb(100%, 100%, 100%)" fill-opacity="1" d="M 37.421875 37.539062 L 46.410156 37.539062 L 46.410156 35.578125 L 37.421875 35.578125 Z M 37.421875 37.539062 "/>
<path fill-rule="evenodd" fill="rgb(100%, 100%, 100%)" fill-opacity="1" d="M 37.421875 40.523438 L 46.410156 40.523438 L 46.410156 38.5625 L 37.421875 38.5625 Z M 37.421875 40.523438 "/>
<path fill-rule="evenodd" fill="rgb(100%, 100%, 100%)" fill-opacity="1" d="M 37.421875 43.511719 L 46.410156 43.511719 L 46.410156 41.546875 L 37.421875 41.546875 Z M 37.421875 43.511719 "/>
<path fill-rule="evenodd" fill="rgb(100%, 100%, 100%)" fill-opacity="1" d="M 55.609375 51.953125 C 55.332031 51.953125 55.105469 52.179688 55.105469 52.457031 L 55.105469 52.96875 C 55.105469 53.242188 55.339844 53.46875 55.609375 53.46875 L 59.707031 53.46875 C 59.980469 53.46875 60.207031 53.242188 60.207031 52.96875 L 60.207031 52.457031 C 60.207031 52.179688 59.984375 51.953125 59.707031 51.953125 Z M 47.675781 54.867188 C 47.394531 54.867188 47.171875 55.09375 47.171875 55.371094 L 47.171875 55.882812 C 47.171875 56.15625 47.402344 56.386719 47.675781 56.386719 L 56.8125 56.386719 C 57.085938 56.386719 57.3125 56.15625 57.3125 55.882812 L 57.3125 55.371094 C 57.3125 55.09375 57.085938 54.867188 56.8125 54.867188 Z M 47.296875 57.96875 C 47.019531 57.96875 46.789062 58.199219 46.789062 58.472656 L 46.789062 58.980469 C 46.789062 59.261719 47.023438 59.488281 47.296875 59.488281 L 57.1875 59.488281 C 57.460938 59.488281 57.6875 59.261719 57.6875 58.980469 L 57.6875 58.472656 C 57.6875 58.199219 57.460938 57.96875 57.1875 57.96875 Z M 44.621094 61.257812 C 44.34375 61.257812 44.117188 61.484375 44.117188 61.761719 L 44.117188 62.273438 C 44.117188 62.550781 44.34375 62.777344 44.621094 62.777344 L 59.863281 62.777344 C 60.140625 62.777344 60.371094 62.550781 60.371094 62.273438 L 60.371094 61.761719 C 60.371094 61.484375 60.140625 61.257812 59.863281 61.257812 Z M 72.816406 59.808594 L 72.816406 60.296875 C 72.816406 60.421875 72.6875 60.527344 72.53125 60.527344 L 71.972656 60.527344 C 71.820312 60.527344 71.6875 60.421875 71.6875 60.296875 L 71.6875 59.808594 C 71.40625 59.964844 71.210938 60.269531 71.210938 60.621094 L 71.210938 63.226562 C 71.210938 63.738281 71.628906 64.15625 72.136719 64.15625 L 72.367188 64.15625 C 72.875 64.15625 73.292969 63.738281 73.292969 63.226562 L 73.292969 60.621094 C 73.292969 60.269531 73.101562 59.96875 72.816406 59.808594 M 43.566406 51.953125 L 43.570312 51.953125 L 46.792969 45.929688 C 46.878906 45.792969 46.808594 45.667969 46.703125 45.625 L 45.417969 44.957031 L 76.4375 44.957031 L 76.4375 47.195312 C 76.4375 47.109375 76.453125 48.160156 73.628906 48.628906 C 73.355469 48.664062 73.089844 48.734375 72.816406 48.769531 L 72.816406 50.089844 C 73.585938 50.160156 74.191406 50.8125 74.191406 51.59375 L 74.191406 55.171875 C 74.191406 55.960938 73.585938 56.609375 72.816406 56.679688 L 72.816406 58.675781 C 73.585938 58.742188 74.191406 59.398438 74.191406 60.183594 L 74.191406 63.691406 C 74.191406 64.523438 73.511719 65.203125 72.683594 65.203125 L 71.828125 65.203125 C 70.992188 65.203125 70.316406 64.523438 70.316406 63.691406 L 70.316406 60.183594 C 70.316406 59.398438 70.921875 58.742188 71.691406 58.675781 L 71.691406 56.679688 C 70.921875 56.609375 70.316406 55.960938 70.316406 55.171875 L 70.316406 51.59375 C 70.316406 50.8125 70.921875 50.160156 71.691406 50.089844 L 71.691406 48.941406 C 69.488281 49.3125 67.359375 49.960938 65.730469 51.832031 L 63.773438 51.832031 C 63.773438 51.832031 62.925781 52.230469 62.046875 53 C 61.445312 53.523438 60.832031 54.222656 60.464844 55.082031 L 59.785156 55.082031 C 59.785156 55.089844 59.460938 55.277344 59.164062 55.589844 C 59.15625 55.597656 59.152344 55.601562 59.148438 55.609375 L 59.125 55.628906 C 59.117188 55.636719 59.109375 55.644531 59.105469 55.652344 C 59.097656 55.660156 59.089844 55.667969 59.085938 55.671875 C 59.078125 55.679688 59.074219 55.691406 59.066406 55.695312 C 59.058594 55.703125 59.054688 55.707031 59.046875 55.714844 L 59.046875 55.71875 C 59.042969 55.722656 59.035156 55.726562 59.035156 55.734375 C 59.035156 55.738281 59.03125 55.738281 59.03125 55.738281 C 59.027344 55.746094 59.023438 55.75 59.015625 55.753906 C 59.007812 55.765625 59.003906 55.773438 59 55.78125 C 58.769531 56.066406 58.597656 56.425781 58.65625 56.828125 C 58.808594 57.808594 59.109375 58.03125 60.011719 58.785156 C 60.914062 59.542969 62.566406 61.207031 63.242188 62.113281 C 63.828125 62.894531 63.910156 64.007812 63.441406 64.308594 C 63.367188 64.355469 63.273438 64.382812 63.167969 64.382812 L 52.265625 64.382812 L 52.265625 64.378906 L 41.441406 64.378906 C 40.6875 64.378906 40.6875 63.019531 41.363281 62.113281 C 42.039062 61.207031 43.699219 59.542969 44.597656 58.785156 C 45.5 58.03125 45.800781 57.808594 45.953125 56.828125 C 46.101562 55.839844 44.820312 55.082031 44.820312 55.082031 L 44.144531 55.082031 C 43.90625 54.613281 43.414062 53.847656 42.949219 53.46875 L 51.769531 53.46875 C 52.042969 53.46875 52.269531 53.242188 52.269531 52.96875 L 52.269531 52.457031 C 52.269531 52.179688 52.046875 51.953125 51.769531 51.953125 Z M 35.554688 46.914062 C 35.234375 46.914062 34.9375 46.9375 34.773438 47.191406 C 34.289062 47.960938 34.398438 50.078125 34.398438 50.925781 L 32.085938 50.925781 L 31.511719 50.359375 L 31.511719 46.503906 C 32.066406 45.601562 33.472656 44.929688 36.070312 44.933594 L 41.6875 44.9375 C 41.867188 44.9375 41.929688 45.085938 41.878906 45.183594 L 38.796875 50.921875 L 35.554688 50.925781 Z M 71.972656 54.648438 L 72.53125 54.648438 C 72.6875 54.648438 72.8125 54.753906 72.8125 54.875 L 72.8125 55.519531 C 73.097656 55.359375 73.292969 55.058594 73.292969 54.714844 L 73.292969 52.03125 C 73.292969 51.679688 73.097656 51.375 72.8125 51.21875 L 72.8125 51.746094 C 72.8125 51.867188 72.683594 51.972656 72.53125 51.972656 L 71.972656 51.972656 C 71.820312 51.972656 71.6875 51.867188 71.6875 51.746094 L 71.6875 51.21875 C 71.402344 51.375 71.210938 51.679688 71.210938 52.03125 L 71.210938 54.714844 C 71.210938 55.058594 71.40625 55.359375 71.6875 55.519531 L 71.6875 54.875 C 71.6875 54.75 71.816406 54.648438 71.972656 54.648438 "/>
<path fill-rule="evenodd" fill="rgb(100%, 100%, 100%)" fill-opacity="1" d="M 47.132812 37.539062 L 48.683594 37.539062 L 48.683594 35.578125 L 47.132812 35.578125 Z M 47.132812 37.539062 "/>
<path fill-rule="evenodd" fill="rgb(100%, 100%, 100%)" fill-opacity="1" d="M 38.59375 33.785156 C 41.339844 33.636719 44.3125 32.710938 46.902344 31.398438 L 47.710938 33.183594 C 44.859375 34.554688 41.648438 35.46875 39.0625 35.597656 Z M 38.59375 33.785156 "/>
<path fill-rule="evenodd" fill="rgb(100%, 100%, 100%)" fill-opacity="1" d="M 48.992188 30.398438 L 47.585938 31.074219 L 48.390625 32.835938 L 49.804688 32.152344 Z M 48.992188 30.398438 "/>
<path fill-rule="evenodd" fill="rgb(100%, 100%, 100%)" fill-opacity="1" d="M 47.132812 40.523438 L 48.683594 40.523438 L 48.683594 38.5625 L 47.132812 38.5625 Z M 47.132812 40.523438 "/>
<path fill-rule="evenodd" fill="rgb(100%, 100%, 100%)" fill-opacity="1" d="M 47.132812 43.511719 L 48.683594 43.511719 L 48.683594 41.546875 L 47.132812 41.546875 Z M 47.132812 43.511719 "/>
<path fill-rule="evenodd" fill="rgb(100%, 100%, 100%)" fill-opacity="1" d="M 60.621094 35.507812 L 60.96875 36.105469 L 62.246094 35.398438 L 61.902344 34.792969 Z M 59.894531 34.199219 L 60.242188 34.800781 L 61.515625 34.089844 L 61.171875 33.488281 Z M 58.089844 32.699219 L 60.929688 31.132812 L 66.910156 41.980469 L 64.066406 43.542969 Z M 58.089844 32.699219 "/>
<path fill-rule="evenodd" fill="rgb(100%, 100%, 100%)" fill-opacity="1" d="M 55.71875 35.570312 L 57.183594 35.570312 L 57.183594 34.886719 L 55.71875 34.886719 Z M 55.71875 34.074219 L 57.183594 34.074219 L 57.183594 33.390625 L 55.71875 33.390625 Z M 55.71875 32.578125 L 57.183594 32.578125 L 57.183594 31.894531 L 55.71875 31.894531 Z M 50.980469 35.570312 L 52.441406 35.570312 L 52.441406 34.886719 L 50.980469 34.886719 Z M 50.980469 34.074219 L 52.441406 34.074219 L 52.441406 33.390625 L 50.980469 33.390625 Z M 50.980469 32.578125 L 52.441406 32.578125 L 52.441406 31.894531 L 50.980469 31.894531 Z M 50.980469 31.074219 L 52.441406 31.074219 L 52.441406 30.398438 L 50.980469 30.398438 Z M 49.796875 28.449219 L 53.621094 28.449219 L 53.621094 43.535156 L 49.796875 43.535156 Z M 54.742188 29.71875 L 58.15625 29.71875 L 58.15625 43.535156 L 54.742188 43.535156 Z M 54.742188 29.71875 "/>
<path fill-rule="evenodd" fill="rgb(100%, 100%, 100%)" fill-opacity="1" d="M 87.371094 50.675781 L 84.570312 50.3125 C 84.457031 50.292969 84.386719 50.257812 84.3125 50.164062 C 84.292969 49.710938 84.277344 49.253906 84.242188 48.820312 C 84.277344 48.726562 84.351562 48.671875 84.457031 48.65625 L 87.191406 47.925781 C 87.226562 47.90625 87.28125 47.890625 87.28125 47.78125 C 87.246094 47.542969 87.226562 47.269531 87.171875 46.960938 L 87.171875 46.925781 C 87.136719 46.632812 87.101562 46.359375 87.0625 46.125 C 87.046875 46.011719 86.992188 46.011719 86.9375 46.011719 L 84.113281 46.011719 C 84.003906 46.011719 83.910156 45.976562 83.859375 45.90625 C 83.765625 45.46875 83.675781 45.03125 83.582031 44.574219 C 83.621094 44.484375 83.675781 44.433594 83.785156 44.394531 L 86.410156 43.304688 C 86.445312 43.285156 86.5 43.265625 86.460938 43.15625 C 86.410156 42.917969 86.355469 42.667969 86.261719 42.375 L 86.261719 42.339844 C 86.171875 42.046875 86.101562 41.773438 86.042969 41.535156 C 86.007812 41.445312 85.953125 41.445312 85.898438 41.445312 L 83.089844 41.828125 C 82.984375 41.847656 82.910156 41.828125 82.820312 41.757812 C 82.691406 41.316406 82.546875 40.898438 82.378906 40.480469 C 82.417969 40.371094 82.472656 40.296875 82.566406 40.242188 L 85.023438 38.84375 C 85.0625 38.824219 85.09375 38.789062 85.0625 38.699219 C 84.988281 38.457031 84.878906 38.203125 84.769531 37.933594 L 84.75 37.917969 L 84.75 37.894531 C 84.621094 37.605469 84.511719 37.371094 84.421875 37.128906 C 84.386719 37.042969 84.332031 37.058594 84.277344 37.058594 L 81.542969 37.804688 C 81.433594 37.839844 81.34375 37.824219 81.25 37.75 C 81.070312 37.347656 80.867188 36.964844 80.667969 36.585938 C 80.667969 36.457031 80.722656 36.382812 80.8125 36.3125 L 83.054688 34.597656 C 83.089844 34.5625 83.128906 34.527344 83.089844 34.4375 C 82.964844 34.21875 82.835938 33.980469 82.691406 33.722656 C 82.691406 33.722656 82.691406 33.707031 82.675781 33.707031 L 82.675781 33.6875 C 82.507812 33.414062 82.378906 33.179688 82.253906 32.980469 C 82.199219 32.890625 82.144531 32.90625 82.089844 32.925781 L 79.484375 34.015625 C 79.375 34.070312 79.28125 34.054688 79.175781 34 C 78.9375 33.632812 78.703125 33.285156 78.464844 32.945312 C 78.429688 32.816406 78.464844 32.722656 78.554688 32.632812 L 80.558594 30.632812 C 80.59375 30.59375 80.632812 30.5625 80.578125 30.46875 C 80.433594 30.285156 80.265625 30.066406 80.085938 29.8125 L 80.070312 29.8125 L 80.070312 29.796875 L 80.050781 29.796875 C 79.867188 29.539062 79.707031 29.339844 79.558594 29.136719 C 79.484375 29.066406 79.429688 29.085938 79.390625 29.117188 L 76.953125 30.523438 C 76.84375 30.59375 76.734375 30.59375 76.621094 30.542969 C 76.351562 30.230469 76.078125 29.902344 75.785156 29.59375 C 75.75 29.484375 75.769531 29.378906 75.84375 29.28125 L 77.574219 27.042969 C 77.605469 27.007812 77.625 26.953125 77.554688 26.882812 C 77.390625 26.699219 77.207031 26.496094 76.992188 26.300781 L 76.992188 26.28125 L 76.972656 26.28125 L 76.972656 26.265625 L 76.953125 26.265625 C 76.75 26.042969 76.550781 25.859375 76.367188 25.699219 C 76.292969 25.621094 76.238281 25.664062 76.203125 25.679688 L 73.960938 27.410156 C 73.871094 27.480469 73.761719 27.5 73.652344 27.464844 C 73.34375 27.191406 73.019531 26.898438 72.703125 26.640625 C 72.65625 26.515625 72.65625 26.425781 72.726562 26.316406 L 74.148438 23.859375 C 74.164062 23.824219 74.183594 23.769531 74.109375 23.710938 C 73.90625 23.550781 73.707031 23.386719 73.453125 23.203125 L 73.453125 23.183594 L 73.4375 23.183594 L 73.4375 23.167969 C 73.183594 22.984375 72.960938 22.824219 72.78125 22.675781 C 72.691406 22.621094 72.65625 22.65625 72.617188 22.695312 L 70.617188 24.699219 C 70.523438 24.789062 70.429688 24.824219 70.320312 24.804688 C 69.957031 24.550781 69.609375 24.316406 69.246094 24.078125 C 69.191406 23.988281 69.175781 23.878906 69.230469 23.769531 L 70.320312 21.164062 C 70.339844 21.109375 70.359375 21.054688 70.265625 21 C 70.066406 20.875 69.828125 20.746094 69.558594 20.582031 L 69.539062 20.582031 C 69.539062 20.582031 69.539062 20.5625 69.519531 20.5625 C 69.265625 20.417969 69.027344 20.292969 68.808594 20.160156 C 68.714844 20.128906 68.679688 20.160156 68.644531 20.199219 L 66.933594 22.4375 C 66.859375 22.550781 66.785156 22.585938 66.660156 22.585938 C 66.277344 22.382812 65.890625 22.1875 65.492188 22 C 65.417969 21.910156 65.402344 21.824219 65.4375 21.710938 L 66.183594 18.980469 C 66.183594 18.941406 66.203125 18.871094 66.113281 18.832031 C 65.875 18.742188 65.636719 18.632812 65.347656 18.503906 L 65.308594 18.503906 C 65.035156 18.378906 64.78125 18.289062 64.546875 18.199219 C 64.457031 18.160156 64.417969 18.214844 64.398438 18.25 L 62.996094 20.691406 C 62.941406 20.800781 62.871094 20.855469 62.757812 20.875 C 62.339844 20.710938 61.921875 20.5625 61.484375 20.433594 C 61.414062 20.363281 61.390625 20.273438 61.414062 20.160156 L 61.796875 17.355469 C 61.796875 17.304688 61.796875 17.25 61.703125 17.234375 C 61.464844 17.160156 61.191406 17.085938 60.902344 17.011719 L 60.902344 16.996094 L 60.867188 16.996094 C 60.574219 16.921875 60.320312 16.851562 60.082031 16.796875 C 59.972656 16.777344 59.953125 16.8125 59.9375 16.867188 L 58.84375 19.472656 C 58.804688 19.582031 58.753906 19.636719 58.660156 19.671875 C 58.207031 19.582031 57.769531 19.492188 57.332031 19.398438 C 57.257812 19.347656 57.222656 19.253906 57.222656 19.140625 L 57.222656 16.320312 C 57.222656 16.285156 57.222656 16.214844 57.113281 16.214844 C 56.878906 16.15625 56.601562 16.121094 56.308594 16.085938 L 56.273438 16.085938 C 55.964844 16.046875 55.691406 16.011719 55.457031 15.992188 C 55.34375 15.976562 55.328125 16.03125 55.328125 16.070312 L 54.582031 18.796875 C 54.5625 18.90625 54.507812 18.980469 54.414062 19.035156 C 53.980469 19 53.523438 18.960938 53.066406 18.941406 C 52.996094 18.890625 52.941406 18.796875 52.941406 18.6875 L 52.574219 15.886719 C 52.558594 15.847656 52.539062 15.792969 52.449219 15.792969 C 52.320312 15.777344 52.191406 15.777344 52.046875 15.777344 L 51.15625 15.777344 C 51.007812 15.777344 50.878906 15.777344 50.753906 15.792969 C 50.664062 15.792969 50.644531 15.847656 50.644531 15.886719 L 50.28125 18.6875 C 50.261719 18.796875 50.222656 18.890625 50.136719 18.941406 C 49.679688 18.960938 49.242188 19 48.785156 19.035156 C 48.714844 18.980469 48.660156 18.90625 48.640625 18.796875 L 47.914062 16.070312 C 47.894531 16.03125 47.875 15.976562 47.785156 15.992188 C 47.53125 16.011719 47.253906 16.046875 46.964844 16.085938 L 46.925781 16.085938 C 46.621094 16.121094 46.34375 16.15625 46.109375 16.214844 C 46.019531 16.214844 46 16.285156 46 16.320312 L 46 19.140625 C 46.019531 19.253906 45.980469 19.347656 45.90625 19.398438 C 45.453125 19.492188 45.015625 19.582031 44.578125 19.671875 C 44.46875 19.636719 44.414062 19.582031 44.378906 19.472656 L 43.304688 16.867188 C 43.285156 16.8125 43.25 16.777344 43.15625 16.796875 C 42.917969 16.851562 42.644531 16.921875 42.355469 16.996094 L 42.335938 16.996094 C 42.320312 16.996094 42.320312 16.996094 42.320312 17.011719 C 42.027344 17.085938 41.753906 17.160156 41.535156 17.234375 C 41.425781 17.25 41.445312 17.304688 41.445312 17.355469 L 41.808594 20.160156 C 41.828125 20.273438 41.808594 20.363281 41.734375 20.433594 C 41.316406 20.5625 40.878906 20.710938 40.460938 20.875 C 40.367188 20.855469 40.296875 20.800781 40.242188 20.691406 L 38.820312 18.25 C 38.804688 18.214844 38.765625 18.160156 38.675781 18.199219 C 38.4375 18.289062 38.199219 18.378906 37.910156 18.503906 L 37.871094 18.503906 C 37.601562 18.632812 37.34375 18.742188 37.125 18.832031 C 37.035156 18.871094 37.035156 18.941406 37.054688 18.980469 L 37.785156 21.710938 C 37.816406 21.824219 37.796875 21.910156 37.746094 22 C 37.34375 22.1875 36.945312 22.382812 36.5625 22.585938 C 36.453125 22.585938 36.359375 22.550781 36.289062 22.4375 L 34.59375 20.199219 C 34.558594 20.160156 34.523438 20.128906 34.429688 20.160156 C 34.230469 20.292969 33.972656 20.417969 33.71875 20.5625 L 33.71875 20.582031 L 33.679688 20.582031 C 33.425781 20.746094 33.191406 20.875 32.972656 21 C 32.902344 21.054688 32.917969 21.109375 32.9375 21.164062 L 34.011719 23.769531 C 34.066406 23.878906 34.066406 23.988281 33.992188 24.078125 C 33.644531 24.316406 33.28125 24.550781 32.9375 24.804688 C 32.808594 24.824219 32.71875 24.789062 32.628906 24.699219 L 30.640625 22.695312 C 30.601562 22.65625 30.546875 22.621094 30.476562 22.675781 C 30.277344 22.824219 30.058594 22.984375 29.820312 23.167969 L 29.804688 23.183594 L 29.78125 23.183594 L 29.78125 23.203125 C 29.546875 23.386719 29.328125 23.550781 29.144531 23.710938 C 29.054688 23.769531 29.09375 23.824219 29.109375 23.859375 L 30.53125 26.316406 C 30.585938 26.425781 30.601562 26.515625 30.546875 26.640625 C 30.222656 26.898438 29.914062 27.191406 29.601562 27.464844 C 29.472656 27.5 29.363281 27.480469 29.273438 27.410156 L 27.03125 25.679688 C 26.996094 25.664062 26.941406 25.621094 26.867188 25.699219 C 26.6875 25.859375 26.503906 26.042969 26.285156 26.265625 L 26.269531 26.28125 C 26.269531 26.28125 26.269531 26.300781 26.25 26.300781 C 26.050781 26.496094 25.851562 26.699219 25.683594 26.882812 C 25.609375 26.953125 25.648438 27.007812 25.667969 27.042969 L 27.398438 29.28125 C 27.472656 29.378906 27.488281 29.484375 27.453125 29.59375 C 27.179688 29.902344 26.90625 30.230469 26.632812 30.542969 C 26.503906 30.59375 26.414062 30.59375 26.304688 30.523438 L 23.847656 29.117188 C 23.808594 29.085938 23.753906 29.066406 23.703125 29.136719 C 23.535156 29.339844 23.371094 29.539062 23.191406 29.796875 L 23.171875 29.796875 L 23.171875 29.8125 C 22.96875 30.066406 22.804688 30.285156 22.675781 30.46875 C 22.605469 30.5625 22.640625 30.59375 22.675781 30.632812 L 24.683594 32.632812 C 24.773438 32.722656 24.8125 32.816406 24.792969 32.945312 C 24.539062 33.285156 24.300781 33.632812 24.0625 34 C 23.96875 34.054688 23.863281 34.070312 23.753906 34.015625 L 21.148438 32.925781 C 21.113281 32.90625 21.058594 32.890625 21.003906 32.980469 C 20.875 33.179688 20.730469 33.414062 20.585938 33.6875 L 20.566406 33.6875 L 20.566406 33.722656 C 20.402344 33.980469 20.273438 34.21875 20.164062 34.4375 C 20.109375 34.527344 20.148438 34.5625 20.183594 34.597656 L 22.441406 36.3125 C 22.53125 36.382812 22.570312 36.457031 22.570312 36.585938 C 22.371094 36.964844 22.1875 37.347656 21.988281 37.75 C 21.894531 37.824219 21.804688 37.839844 21.695312 37.804688 L 18.960938 37.058594 C 18.925781 37.058594 18.871094 37.042969 18.816406 37.128906 C 18.722656 37.371094 18.617188 37.605469 18.507812 37.894531 L 18.488281 37.894531 L 18.488281 37.933594 C 18.363281 38.203125 18.269531 38.457031 18.179688 38.699219 C 18.144531 38.789062 18.199219 38.824219 18.234375 38.84375 L 20.675781 40.242188 C 20.785156 40.296875 20.839844 40.371094 20.859375 40.480469 C 20.691406 40.898438 20.566406 41.316406 20.421875 41.757812 C 20.347656 41.828125 20.257812 41.847656 20.148438 41.828125 L 17.339844 41.445312 C 17.304688 41.445312 17.230469 41.445312 17.210938 41.535156 C 17.140625 41.773438 17.066406 42.046875 16.996094 42.339844 L 16.976562 42.339844 L 16.976562 42.375 C 16.902344 42.667969 16.832031 42.917969 16.777344 43.15625 C 16.761719 43.265625 16.8125 43.285156 16.847656 43.304688 L 19.453125 44.394531 C 19.5625 44.433594 19.617188 44.484375 19.65625 44.574219 C 19.5625 45.03125 19.472656 45.46875 19.398438 45.90625 C 19.328125 45.996094 19.234375 46.011719 19.128906 46.011719 L 16.304688 46.011719 C 16.265625 46.011719 16.210938 46.011719 16.195312 46.125 C 16.15625 46.359375 16.101562 46.632812 16.0625 46.925781 L 16.0625 46.960938 C 16.03125 47.269531 15.992188 47.542969 15.976562 47.78125 C 15.957031 47.890625 16.007812 47.90625 16.046875 47.925781 L 18.777344 48.65625 C 18.890625 48.671875 18.960938 48.726562 19.015625 48.820312 C 18.980469 49.253906 18.945312 49.710938 18.925781 50.164062 C 18.871094 50.257812 18.796875 50.292969 18.667969 50.3125 L 15.863281 50.675781 C 15.828125 50.675781 15.773438 50.691406 15.773438 50.78125 C 15.757812 51.039062 15.757812 51.3125 15.757812 51.601562 L 15.757812 51.660156 C 15.757812 51.949219 15.757812 52.222656 15.773438 52.476562 C 15.773438 52.570312 15.828125 52.589844 15.863281 52.589844 L 18.667969 52.949219 C 18.796875 52.96875 18.871094 53.003906 18.925781 53.097656 C 18.945312 53.550781 18.980469 53.984375 19.015625 54.445312 C 18.960938 54.535156 18.890625 54.589844 18.777344 54.605469 L 16.046875 55.335938 C 16.007812 55.355469 15.957031 55.371094 15.976562 55.480469 C 15.992188 55.71875 16.03125 55.992188 16.0625 56.28125 L 16.0625 56.335938 C 16.101562 56.628906 16.136719 56.902344 16.195312 57.140625 C 16.195312 57.246094 16.265625 57.246094 16.304688 57.246094 L 19.128906 57.246094 C 19.234375 57.246094 19.328125 57.265625 19.398438 57.339844 C 19.472656 57.792969 19.5625 58.230469 19.65625 58.6875 C 19.617188 58.777344 19.5625 58.832031 19.453125 58.867188 L 16.847656 59.960938 C 16.792969 59.976562 16.761719 59.996094 16.777344 60.105469 C 16.832031 60.324219 16.902344 60.597656 16.976562 60.886719 L 16.976562 60.921875 L 16.996094 60.921875 C 17.066406 61.214844 17.140625 61.488281 17.210938 61.726562 C 17.230469 61.816406 17.304688 61.816406 17.339844 61.816406 L 20.148438 61.433594 C 20.257812 61.417969 20.347656 61.433594 20.421875 61.507812 C 20.550781 61.945312 20.691406 62.363281 20.859375 62.785156 C 20.839844 62.890625 20.785156 62.964844 20.675781 63 L 18.234375 64.417969 C 18.199219 64.4375 18.144531 64.472656 18.179688 64.5625 C 18.269531 64.804688 18.363281 65.054688 18.488281 65.328125 L 18.488281 65.367188 C 18.617188 65.660156 18.722656 65.894531 18.816406 66.128906 C 18.851562 66.203125 18.925781 66.203125 18.960938 66.183594 L 21.695312 65.457031 C 21.804688 65.421875 21.894531 65.441406 21.988281 65.511719 C 22.167969 65.894531 22.371094 66.292969 22.570312 66.675781 C 22.570312 66.804688 22.53125 66.875 22.425781 66.949219 L 20.183594 68.664062 C 20.148438 68.699219 20.109375 68.734375 20.148438 68.828125 C 20.273438 69.042969 20.402344 69.28125 20.550781 69.539062 C 20.566406 69.539062 20.566406 69.554688 20.566406 69.554688 L 20.566406 69.574219 L 20.585938 69.574219 C 20.730469 69.847656 20.875 70.082031 21.003906 70.28125 C 21.039062 70.355469 21.09375 70.355469 21.148438 70.335938 L 23.753906 69.246094 C 23.863281 69.1875 23.96875 69.207031 24.0625 69.261719 C 24.300781 69.625 24.539062 69.972656 24.792969 70.316406 C 24.8125 70.445312 24.773438 70.535156 24.683594 70.628906 L 22.675781 72.632812 C 22.640625 72.667969 22.605469 72.699219 22.675781 72.796875 C 22.804688 72.980469 22.96875 73.195312 23.152344 73.449219 L 23.171875 73.449219 L 23.171875 73.46875 L 23.191406 73.46875 C 23.371094 73.722656 23.535156 73.921875 23.703125 74.121094 C 23.753906 74.195312 23.808594 74.179688 23.847656 74.144531 L 26.304688 72.742188 C 26.414062 72.667969 26.503906 72.667969 26.632812 72.722656 C 26.90625 73.03125 27.179688 73.359375 27.453125 73.667969 C 27.488281 73.777344 27.472656 73.886719 27.398438 73.976562 L 25.667969 76.21875 C 25.648438 76.253906 25.609375 76.308594 25.683594 76.382812 C 25.851562 76.5625 26.03125 76.761719 26.25 76.964844 C 26.25 76.964844 26.25 76.980469 26.269531 76.980469 L 26.269531 76.996094 L 26.285156 76.996094 C 26.503906 77.21875 26.6875 77.398438 26.867188 77.5625 C 26.941406 77.640625 26.996094 77.601562 27.03125 77.582031 L 29.273438 75.851562 C 29.363281 75.78125 29.472656 75.761719 29.582031 75.796875 C 29.894531 76.070312 30.222656 76.363281 30.53125 76.621094 C 30.585938 76.742188 30.585938 76.851562 30.511719 76.945312 L 29.109375 79.402344 C 29.070312 79.4375 29.054688 79.492188 29.128906 79.566406 C 29.328125 79.710938 29.546875 79.875 29.78125 80.0625 L 29.78125 80.078125 L 29.804688 80.078125 L 29.804688 80.09375 C 30.058594 80.273438 30.277344 80.4375 30.476562 80.585938 C 30.546875 80.640625 30.585938 80.605469 30.621094 80.566406 L 32.628906 78.5625 C 32.71875 78.476562 32.808594 78.4375 32.9375 78.457031 C 33.28125 78.710938 33.628906 78.945312 33.992188 79.183594 C 34.046875 79.273438 34.066406 79.382812 34.011719 79.492188 L 32.917969 82.097656 C 32.902344 82.152344 32.902344 82.207031 32.972656 82.261719 C 33.171875 82.386719 33.410156 82.515625 33.679688 82.679688 L 33.703125 82.679688 C 33.703125 82.699219 33.71875 82.699219 33.71875 82.699219 C 33.972656 82.84375 34.210938 82.972656 34.429688 83.101562 C 34.523438 83.136719 34.558594 83.101562 34.59375 83.0625 L 36.289062 80.820312 C 36.359375 80.714844 36.433594 80.675781 36.5625 80.675781 C 36.945312 80.875 37.34375 81.078125 37.730469 81.261719 C 37.796875 81.351562 37.816406 81.441406 37.785156 81.550781 L 37.054688 84.265625 C 37.035156 84.320312 37.035156 84.371094 37.125 84.40625 C 37.34375 84.5 37.582031 84.609375 37.871094 84.738281 L 37.890625 84.738281 C 37.910156 84.738281 37.910156 84.738281 37.910156 84.753906 C 38.183594 84.867188 38.4375 84.972656 38.675781 85.046875 C 38.765625 85.082031 38.804688 85.046875 38.820312 84.988281 L 40.242188 82.570312 C 40.277344 82.460938 40.351562 82.40625 40.460938 82.386719 C 40.878906 82.554688 41.296875 82.699219 41.734375 82.828125 C 41.808594 82.898438 41.828125 82.988281 41.808594 83.101562 L 41.425781 85.886719 C 41.425781 85.941406 41.425781 85.992188 41.519531 86.011719 C 41.753906 86.085938 42.027344 86.15625 42.320312 86.246094 L 42.355469 86.246094 C 42.644531 86.335938 42.917969 86.390625 43.140625 86.449219 C 43.25 86.484375 43.265625 86.429688 43.285156 86.390625 L 44.378906 83.773438 C 44.414062 83.679688 44.46875 83.625 44.558594 83.59375 C 45.015625 83.679688 45.453125 83.773438 45.90625 83.84375 C 45.980469 83.898438 46 83.992188 46 84.097656 L 46 86.921875 C 46 86.976562 46 87.03125 46.109375 87.050781 C 46.34375 87.085938 46.621094 87.121094 46.910156 87.15625 L 46.964844 87.15625 C 47.253906 87.210938 47.53125 87.230469 47.765625 87.265625 C 47.875 87.265625 47.894531 87.210938 47.914062 87.175781 L 48.640625 84.449219 C 48.660156 84.335938 48.714844 84.265625 48.785156 84.226562 C 49.222656 84.265625 49.679688 84.28125 50.136719 84.296875 C 50.222656 84.371094 50.261719 84.449219 50.28125 84.554688 L 50.644531 87.359375 C 50.644531 87.394531 50.664062 87.449219 50.753906 87.46875 L 52.449219 87.46875 C 52.539062 87.449219 52.558594 87.394531 52.574219 87.359375 L 52.941406 84.554688 C 52.941406 84.449219 52.996094 84.371094 53.066406 84.296875 C 53.523438 84.28125 53.980469 84.265625 54.414062 84.226562 C 54.507812 84.265625 54.5625 84.335938 54.597656 84.449219 L 55.328125 87.175781 C 55.328125 87.210938 55.363281 87.265625 55.457031 87.265625 C 55.691406 87.230469 55.964844 87.210938 56.273438 87.15625 L 56.308594 87.15625 C 56.621094 87.121094 56.878906 87.085938 57.132812 87.050781 C 57.222656 87.03125 57.222656 86.976562 57.222656 86.921875 L 57.222656 84.097656 C 57.222656 83.992188 57.257812 83.898438 57.332031 83.84375 C 57.769531 83.773438 58.222656 83.679688 58.660156 83.59375 C 58.753906 83.625 58.824219 83.679688 58.859375 83.773438 L 59.9375 86.390625 C 59.953125 86.429688 59.992188 86.484375 60.082031 86.449219 C 60.320312 86.390625 60.574219 86.335938 60.882812 86.246094 L 60.921875 86.246094 C 61.210938 86.15625 61.464844 86.085938 61.703125 86.011719 C 61.796875 85.992188 61.796875 85.941406 61.796875 85.886719 L 61.414062 83.101562 C 61.390625 82.988281 61.429688 82.898438 61.484375 82.828125 C 61.921875 82.699219 62.339844 82.554688 62.757812 82.386719 C 62.871094 82.40625 62.941406 82.460938 62.996094 82.570312 L 64.398438 84.988281 C 64.433594 85.046875 64.472656 85.082031 64.5625 85.046875 C 64.78125 84.972656 65.035156 84.867188 65.328125 84.753906 L 65.328125 84.738281 L 65.347656 84.738281 C 65.636719 84.609375 65.890625 84.5 66.113281 84.40625 C 66.203125 84.371094 66.183594 84.320312 66.183594 84.265625 L 65.4375 81.550781 C 65.417969 81.441406 65.417969 81.351562 65.492188 81.261719 C 65.890625 81.078125 66.277344 80.875 66.675781 80.675781 C 66.785156 80.675781 66.878906 80.714844 66.933594 80.820312 L 68.660156 83.0625 C 68.679688 83.101562 68.738281 83.136719 68.808594 83.101562 C 69.027344 82.972656 69.265625 82.84375 69.539062 82.699219 L 69.539062 82.679688 L 69.558594 82.679688 C 69.828125 82.515625 70.066406 82.386719 70.265625 82.261719 C 70.359375 82.207031 70.339844 82.152344 70.320312 82.097656 L 69.246094 79.492188 C 69.191406 79.382812 69.191406 79.273438 69.246094 79.183594 C 69.609375 78.945312 69.976562 78.710938 70.320312 78.457031 C 70.429688 78.4375 70.539062 78.476562 70.617188 78.5625 L 72.617188 80.566406 C 72.65625 80.605469 72.691406 80.640625 72.78125 80.585938 C 72.980469 80.4375 73.199219 80.273438 73.4375 80.09375 L 73.4375 80.078125 L 73.453125 80.078125 C 73.453125 80.078125 73.453125 80.0625 73.472656 80.0625 C 73.707031 79.875 73.925781 79.710938 74.109375 79.566406 C 74.183594 79.492188 74.164062 79.4375 74.148438 79.402344 L 72.726562 76.945312 C 72.65625 76.851562 72.65625 76.742188 72.703125 76.621094 C 73.035156 76.363281 73.34375 76.070312 73.652344 75.796875 C 73.78125 75.761719 73.871094 75.78125 73.980469 75.851562 L 76.222656 77.582031 C 76.261719 77.601562 76.292969 77.640625 76.367188 77.5625 C 76.550781 77.398438 76.75 77.21875 76.972656 76.996094 L 76.972656 76.980469 L 76.992188 76.980469 L 76.992188 76.964844 C 77.207031 76.761719 77.410156 76.5625 77.574219 76.382812 C 77.625 76.308594 77.605469 76.253906 77.574219 76.21875 L 75.859375 73.976562 C 75.769531 73.886719 75.75 73.777344 75.785156 73.667969 C 76.078125 73.359375 76.351562 73.03125 76.621094 72.722656 C 76.734375 72.667969 76.84375 72.667969 76.953125 72.742188 L 79.390625 74.144531 C 79.429688 74.179688 79.484375 74.195312 79.558594 74.121094 C 79.707031 73.921875 79.867188 73.722656 80.070312 73.46875 L 80.070312 73.449219 L 80.085938 73.449219 C 80.265625 73.195312 80.433594 72.980469 80.578125 72.796875 C 80.632812 72.699219 80.59375 72.667969 80.558594 72.632812 L 78.554688 70.628906 C 78.464844 70.535156 78.445312 70.445312 78.464844 70.316406 C 78.703125 69.972656 78.9375 69.625 79.175781 69.261719 C 79.28125 69.207031 79.375 69.1875 79.484375 69.246094 L 82.109375 70.335938 C 82.144531 70.355469 82.199219 70.355469 82.253906 70.28125 C 82.378906 70.082031 82.507812 69.847656 82.675781 69.574219 L 82.675781 69.554688 L 82.691406 69.554688 L 82.691406 69.539062 C 82.835938 69.28125 82.984375 69.042969 83.089844 68.828125 C 83.144531 68.734375 83.089844 68.699219 83.054688 68.664062 L 80.8125 66.949219 C 80.722656 66.875 80.667969 66.804688 80.667969 66.675781 C 80.867188 66.292969 81.070312 65.894531 81.25 65.511719 C 81.34375 65.441406 81.433594 65.421875 81.542969 65.457031 L 84.277344 66.183594 C 84.332031 66.203125 84.386719 66.203125 84.421875 66.128906 C 84.53125 65.894531 84.640625 65.660156 84.75 65.367188 L 84.75 65.347656 L 84.769531 65.328125 C 84.878906 65.054688 84.988281 64.804688 85.0625 64.5625 C 85.09375 64.472656 85.0625 64.4375 85.023438 64.417969 L 82.566406 63 C 82.472656 62.964844 82.417969 62.890625 82.402344 62.785156 C 82.546875 62.363281 82.691406 61.945312 82.820312 61.507812 C 82.910156 61.433594 82.984375 61.417969 83.089844 61.433594 L 85.898438 61.816406 C 85.953125 61.816406 86.007812 61.816406 86.042969 61.726562 C 86.101562 61.488281 86.171875 61.214844 86.261719 60.921875 L 86.261719 60.886719 C 86.355469 60.597656 86.410156 60.324219 86.460938 60.105469 C 86.5 59.996094 86.445312 59.976562 86.410156 59.960938 L 83.785156 58.867188 C 83.675781 58.832031 83.621094 58.777344 83.582031 58.6875 C 83.695312 58.230469 83.765625 57.792969 83.859375 57.339844 C 83.910156 57.265625 84.003906 57.246094 84.113281 57.246094 L 86.9375 57.246094 C 86.992188 57.246094 87.046875 57.246094 87.0625 57.140625 C 87.101562 56.902344 87.136719 56.628906 87.171875 56.335938 L 87.171875 56.28125 C 87.226562 55.992188 87.246094 55.71875 87.28125 55.480469 C 87.28125 55.371094 87.226562 55.355469 87.191406 55.335938 L 84.457031 54.605469 C 84.351562 54.589844 84.277344 54.535156 84.242188 54.445312 C 84.277344 53.984375 84.292969 53.550781 84.3125 53.097656 C 84.386719 53.003906 84.457031 52.96875 84.570312 52.949219 L 87.371094 52.589844 C 87.410156 52.589844 87.464844 52.570312 87.484375 52.476562 L 87.484375 50.78125 C 87.464844 50.691406 87.410156 50.675781 87.371094 50.675781 M 51.609375 80.988281 C 35.433594 80.988281 22.257812 67.804688 22.257812 51.640625 C 22.257812 35.457031 35.433594 22.273438 51.609375 22.273438 C 67.789062 22.273438 80.980469 35.457031 80.980469 51.640625 C 80.980469 67.804688 67.789062 80.988281 51.609375 80.988281 "/>
<path fill-rule="evenodd" fill="rgb(100%, 100%, 100%)" fill-opacity="1" d="M 49.820312 69.683594 L 49.785156 69.667969 L 49.699219 69.636719 L 49.78125 69.597656 L 49.8125 69.582031 C 50.019531 69.484375 50.148438 69.261719 50.148438 69.023438 L 50.148438 68.253906 C 50.148438 67.925781 49.851562 67.644531 49.511719 67.644531 L 45.292969 67.644531 C 44.957031 67.644531 44.6875 67.917969 44.6875 68.253906 L 44.6875 69.023438 C 44.6875 69.261719 44.816406 69.484375 45.019531 69.582031 L 45.054688 69.597656 L 45.132812 69.640625 L 45.046875 69.667969 L 45.015625 69.683594 C 44.785156 69.769531 44.628906 70 44.628906 70.261719 L 44.628906 71.152344 C 44.628906 71.492188 44.882812 71.765625 45.191406 71.765625 L 49.640625 71.765625 C 49.953125 71.765625 50.207031 71.492188 50.207031 71.152344 L 50.207031 70.261719 C 50.207031 70 50.050781 69.769531 49.820312 69.683594 M 45.921875 68.597656 C 45.921875 68.46875 46.039062 68.363281 46.183594 68.363281 L 48.671875 68.363281 C 48.816406 68.363281 48.933594 68.46875 48.933594 68.597656 L 48.933594 69.109375 C 48.933594 69.234375 48.816406 69.339844 48.671875 69.339844 L 46.183594 69.339844 C 46.039062 69.339844 45.921875 69.234375 45.921875 69.109375 Z M 48.976562 70.808594 C 48.976562 70.933594 48.855469 71.042969 48.714844 71.042969 L 46.140625 71.042969 C 45.996094 71.042969 45.878906 70.9375 45.878906 70.808594 L 45.878906 70.285156 C 45.878906 70.15625 45.996094 70.046875 46.140625 70.046875 L 48.714844 70.046875 C 48.859375 70.046875 48.976562 70.15625 48.976562 70.285156 Z M 48.976562 70.808594 "/>
<path fill-rule="evenodd" fill="rgb(100%, 100%, 100%)" fill-opacity="1" d="M 42.984375 71.761719 L 41.675781 71.761719 L 41.675781 68.65625 C 41.675781 68.535156 41.574219 68.53125 41.53125 68.53125 C 41.464844 68.53125 41.390625 68.546875 41.320312 68.5625 L 40.347656 68.789062 L 40.347656 68.042969 L 41.375 67.78125 C 41.421875 67.773438 41.464844 67.757812 41.511719 67.746094 C 41.6875 67.695312 41.871094 67.648438 42.039062 67.644531 L 42.824219 67.644531 C 42.925781 67.648438 42.984375 67.707031 42.984375 67.816406 Z M 42.984375 71.761719 "/>
<path fill-rule="evenodd" fill="rgb(100%, 100%, 100%)" fill-opacity="1" d="M 12.101562 31.140625 C 12.539062 31.773438 11.996094 32.808594 11.597656 33.328125 C 11.171875 33.890625 9.988281 33.527344 9.433594 33.308594 C 8.726562 33.03125 8.15625 32.589844 8.578125 31.867188 C 8.605469 31.820312 8.753906 31.445312 8.773438 31.226562 C 8.824219 30.671875 8.886719 29.941406 9.601562 30.414062 C 9.875 30.542969 9.066406 31.894531 9.109375 32.066406 C 9.160156 32.238281 9.285156 32.246094 9.46875 32.304688 C 10.21875 31.890625 9.546875 30.488281 10.675781 30.75 C 11.066406 31.140625 10.515625 31.890625 10.847656 32.128906 C 11.1875 32.367188 11.230469 31.195312 11.855469 31.066406 C 11.90625 31.054688 12.082031 31.109375 12.101562 31.140625 M 11.921875 26.203125 C 11.765625 26.308594 11.226562 26.769531 11.207031 26.324219 C 11.171875 25.683594 11.691406 25.210938 11.96875 24.683594 C 12.253906 24.128906 12.664062 23.648438 13.34375 23.90625 C 13.824219 24.089844 14.347656 24.527344 14.730469 24.859375 C 15.082031 25.167969 15.179688 25.832031 15.195312 26.277344 C 15.222656 26.941406 14.9375 28.308594 13.984375 27.992188 C 13.699219 27.222656 14.636719 27.023438 14.15625 26.375 C 13.558594 26.328125 13.785156 26.921875 13.1875 26.871094 C 12.582031 26.496094 13.375 25.75 12.988281 25.304688 C 12.679688 25.316406 12.488281 25.519531 12.359375 25.789062 C 12.234375 26.054688 12.144531 26.046875 11.921875 26.203125 M 18.378906 28.070312 C 18.613281 28.027344 19.324219 28.058594 19.449219 28.238281 C 20.050781 28.972656 19.324219 29.625 19.242188 30.328125 C 18.9375 31.328125 18.445312 31.644531 19.0625 32.683594 C 19.476562 33.367188 19.011719 34.691406 18.09375 34.59375 C 17.785156 34.347656 18.074219 33.671875 17.859375 33.5 C 16.699219 33.335938 16.714844 35.472656 15.109375 34.824219 C 15.078125 34.816406 15.007812 34.730469 15 34.703125 C 14.847656 34.046875 15.382812 33.9375 15.519531 33.511719 C 15.304688 33.183594 14.796875 33.230469 14.597656 32.875 C 14.476562 31.546875 15.167969 30.363281 15.773438 29.320312 C 16.058594 28.828125 16.480469 28.457031 17.074219 28.726562 C 17.859375 29.078125 17.269531 30.1875 17.605469 30.71875 C 18.574219 30.707031 18.007812 28.777344 18.265625 28.171875 C 18.277344 28.148438 18.339844 28.078125 18.378906 28.070312 M 15.601562 31.910156 C 15.230469 31.363281 15.890625 30.703125 16.039062 30.167969 C 16.101562 30.078125 16.136719 29.957031 16.289062 29.949219 C 16.445312 29.9375 16.320312 29.933594 16.589844 30.097656 C 16.863281 30.261719 15.972656 32.457031 15.601562 31.910156 M 17.027344 32.296875 C 17.027344 32.296875 17.027344 32.304688 17.027344 32.304688 C 16.96875 33.085938 16.269531 33.117188 16.191406 32.863281 C 16.128906 32.6875 16.535156 31.792969 16.933594 32.027344 C 16.96875 32.042969 17.035156 32.167969 17.03125 32.207031 C 17.03125 32.222656 17.03125 32.242188 17.03125 32.265625 C 17.03125 32.277344 17.027344 32.285156 17.027344 32.296875 M 20.117188 25.34375 C 19.546875 25.363281 17.589844 25.648438 17.171875 25.878906 C 16.171875 26.414062 15.777344 26.941406 15.160156 27.875 C 14.910156 28.25 14.636719 28.765625 14.203125 28.375 C 13.882812 28.089844 13.570312 28.527344 13.199219 28.417969 C 12.796875 28.300781 12.8125 27.941406 12.65625 27.636719 C 12.429688 27.199219 11.90625 27.675781 11.609375 27.726562 C 11.375 27.5625 11.535156 26.898438 11.296875 26.734375 C 10.53125 26.722656 10.359375 27.203125 10.535156 27.828125 C 10.71875 28.492188 10.101562 28.871094 10.144531 29.503906 C 10.355469 29.707031 10.675781 29.640625 10.894531 29.503906 C 11.183594 29.628906 11.292969 29.964844 11.386719 30.238281 C 11.539062 30.691406 11.742188 30.445312 12.101562 30.433594 C 13.9375 30.351562 12.660156 32.621094 12.414062 33.503906 C 12.285156 33.984375 12.105469 34.675781 12.367188 35.140625 C 12.527344 35.425781 12.980469 36.300781 13.070312 36.496094 C 13.488281 37.207031 15.546875 38.203125 14.828125 36.648438 C 14.363281 35.636719 13.421875 35.019531 13.601562 33.800781 C 13.816406 32.375 14.074219 31.328125 14.667969 30.015625 C 15.15625 28.933594 16.171875 28.035156 17.078125 27.320312 C 17.527344 26.96875 17.992188 26.679688 18.582031 26.671875 C 19.171875 26.664062 19.800781 26.871094 20.371094 26.625 C 20.628906 26.273438 20.390625 25.613281 20.117188 25.34375 M 13.316406 30.132812 C 12.996094 29.78125 13.648438 28.757812 13.972656 29.398438 C 14.019531 29.824219 13.613281 30.238281 13.316406 30.132812 "/>
<path fill-rule="evenodd" fill="rgb(100%, 100%, 100%)" fill-opacity="1" d="M 72.523438 9.546875 C 71.074219 8.730469 69.585938 8.097656 67.933594 7.808594 C 67.132812 7.664062 66.355469 9.410156 67.164062 9.878906 C 67.484375 10.066406 68.746094 10.011719 68.699219 10.550781 C 68.640625 10.886719 67.402344 10.25 66.433594 10.792969 C 66.375 10.820312 66.332031 10.855469 66.300781 10.882812 C 66.007812 11.074219 65.769531 11.429688 65.496094 11.675781 C 65.222656 11.933594 64.824219 12.507812 64.386719 12.433594 C 64.03125 12.375 63.429688 11.800781 63.472656 11.722656 C 63.628906 11.414062 64.078125 11.609375 64.355469 11.25 C 64.859375 10.597656 64.753906 9.839844 65.039062 9.125 C 65.34375 8.351562 66.589844 8.574219 66.601562 7.460938 C 66.609375 7.011719 66.1875 6.753906 65.878906 6.453125 L 65.496094 6.179688 C 65.3125 6.066406 64.554688 6.078125 64.675781 6.636719 C 64.734375 6.914062 65.230469 7.671875 64.734375 7.792969 C 64.058594 7.960938 63.121094 7.660156 62.46875 7.496094 C 62.355469 7.46875 61.539062 7.179688 61.414062 7.199219 C 61.3125 7.210938 61.226562 7.242188 61.171875 7.292969 C 60.902344 7.566406 60.921875 8.050781 61.144531 8.316406 C 61.152344 8.324219 61.152344 8.328125 61.160156 8.332031 C 61.167969 8.34375 61.210938 8.375 61.226562 8.382812 C 61.371094 8.421875 61.90625 8.453125 61.914062 8.453125 C 62.222656 8.449219 62.761719 8.574219 63.15625 8.746094 L 63.15625 8.742188 C 63.582031 8.945312 63.816406 9.097656 63.351562 9.238281 C 63.339844 9.242188 63.335938 9.242188 63.328125 9.246094 L 63.320312 9.246094 C 62.648438 9.476562 61.445312 8.882812 60.777344 9.222656 C 60.753906 9.234375 60.707031 9.269531 60.699219 9.285156 C 60.640625 9.386719 60.457031 9.761719 60.671875 9.878906 C 60.871094 9.984375 61.160156 10.050781 61.324219 10.066406 C 61.457031 10.078125 62.304688 10.0625 62.703125 10.046875 C 62.816406 10.042969 62.972656 9.996094 63.007812 9.980469 C 63.082031 9.949219 63.160156 9.921875 63.246094 9.914062 C 63.535156 9.871094 63.769531 9.925781 63.640625 10.273438 C 63.476562 10.707031 61.902344 11.140625 61.492188 11.039062 C 61.078125 10.9375 60.613281 11.484375 60.597656 11.570312 C 60.527344 11.953125 60.558594 12.375 60.382812 12.78125 C 60.148438 13.324219 59.660156 14.066406 59.925781 14.671875 C 59.996094 14.871094 61.21875 14.929688 62.621094 15.125 C 62.714844 15.136719 62.8125 15.152344 62.90625 15.167969 C 63.792969 15.300781 64.726562 15.496094 65.464844 15.816406 C 65.753906 15.941406 65.988281 16.035156 66.1875 16.113281 C 67.210938 16.628906 68.257812 17.285156 68.425781 17.472656 C 69.234375 18.414062 70.492188 19.957031 70.972656 19.296875 C 70.9375 18.636719 70.558594 18.15625 70.277344 17.59375 C 70.164062 17.351562 70.484375 17.25 70.609375 17.085938 C 71.082031 16.472656 71.203125 15.550781 71.359375 14.820312 C 71.496094 14.210938 71.578125 13.589844 71.738281 12.984375 C 71.921875 12.289062 70.976562 11.816406 70.359375 11.640625 C 70.277344 11.613281 70.132812 11.464844 70.144531 11.414062 C 70.257812 10.917969 71.164062 11.320312 71.726562 11.675781 C 71.945312 11.8125 72.5 11.78125 72.617188 11.585938 C 72.792969 11.28125 72.90625 10.90625 73.058594 10.667969 C 73.429688 10.085938 72.992188 9.816406 72.523438 9.546875 M 61.296875 14.039062 C 61.707031 14.214844 63.03125 12.570312 62.269531 12.050781 C 61.507812 11.535156 60.890625 13.863281 61.296875 14.039062 M 63.273438 13.320312 C 63.417969 13.183594 63.660156 13.011719 64.101562 13.378906 C 64.125 13.394531 64.179688 13.496094 64.183594 13.523438 C 64.363281 14.828125 62.347656 14.253906 63.273438 13.320312 M 67.3125 11.640625 C 67.453125 11.253906 68.039062 11.46875 68.117188 11.800781 C 68.125 11.828125 68.070312 11.894531 68.042969 11.894531 C 67.785156 11.945312 67.5625 11.953125 67.324219 11.730469 C 67.3125 11.726562 67.308594 11.660156 67.3125 11.640625 M 65.699219 15.132812 C 66.097656 15.382812 66.988281 15.136719 66.988281 14.578125 C 66.980469 13.625 65.503906 13.519531 65.085938 14.21875 C 64.988281 14.429688 65.296875 14.875 65.699219 15.132812 M 67.0625 13.335938 C 66.875 13.253906 66.191406 12.890625 66.273438 12.605469 C 66.359375 12.382812 66.738281 12.242188 67.492188 12.746094 C 67.523438 12.765625 67.574219 12.90625 67.570312 12.957031 C 67.535156 13.253906 67.480469 13.53125 67.0625 13.335938 M 69.40625 16.511719 C 69.734375 16.070312 69.730469 15.582031 69.296875 15.226562 C 69.261719 15.199219 69.226562 15.167969 69.1875 15.144531 C 69.007812 15.019531 68.816406 14.957031 68.636719 14.859375 C 68.527344 14.800781 68.40625 14.761719 68.257812 14.785156 C 67.855469 14.832031 67.519531 15.089844 67.53125 15.523438 C 67.546875 16.285156 68.574219 16.632812 69.238281 16.605469 C 69.269531 16.605469 69.382812 16.542969 69.40625 16.511719 M 70.34375 14.503906 C 70.1875 14.960938 68.957031 14.148438 68.976562 13.570312 C 68.980469 13.550781 69.011719 13.496094 69.023438 13.496094 C 69.402344 13.445312 70.507812 14.035156 70.34375 14.503906 M 69.1875 12.335938 C 69.3125 11.59375 70.261719 12.394531 70.035156 12.886719 C 70.023438 12.914062 69.945312 12.953125 69.925781 12.949219 C 69.796875 12.90625 69.703125 12.824219 69.613281 12.734375 C 69.492188 12.609375 69.179688 12.367188 69.1875 12.335938 M 70.957031 10.683594 C 70.941406 10.675781 70.875 10.617188 70.851562 10.59375 C 70.347656 10.003906 69.289062 9.597656 68.515625 9.546875 C 68.476562 9.542969 68.398438 9.527344 68.347656 9.507812 C 68.347656 9.507812 68.300781 9.476562 68.296875 9.472656 C 68.136719 9.292969 67.890625 8.597656 68.460938 8.777344 C 69.085938 8.976562 69.082031 9.019531 69.542969 9.183594 C 69.960938 9.332031 70.640625 9.554688 71.011719 9.730469 C 71.023438 9.734375 71.035156 9.742188 71.050781 9.75 C 71.078125 9.761719 71.101562 9.777344 71.125 9.789062 L 71.117188 9.789062 C 71.179688 9.828125 71.242188 9.867188 71.300781 9.921875 C 71.792969 10.367188 71.621094 10.855469 70.957031 10.683594 "/>
<path fill-rule="evenodd" fill="rgb(100%, 100%, 100%)" fill-opacity="1" d="M 93.253906 34.792969 C 93.203125 34.566406 93.035156 33.964844 93.019531 33.574219 L 93.019531 33.578125 C 92.996094 32.546875 92.746094 31.648438 92.609375 30.632812 C 92.550781 30.1875 92.308594 28.542969 93.078125 28.558594 C 93.125 28.558594 93.265625 28.390625 93.269531 28.335938 C 93.339844 27.527344 92.8125 27.210938 92.09375 27.5 C 91.691406 27.667969 91.464844 27.71875 91.082031 27.472656 C 91 27.417969 90.222656 26.976562 89.511719 26.5 C 89.058594 26.203125 87.683594 25.152344 87.683594 25.152344 C 87.054688 24.777344 86.429688 23.828125 86.058594 24.914062 C 86.539062 25.878906 87.625 26.222656 88.367188 26.894531 C 88.730469 27.21875 88.980469 27.917969 88.234375 27.667969 C 87.507812 27.40625 86.675781 26.511719 86.230469 26.257812 C 85.816406 26.011719 84.847656 25.921875 85.179688 26.683594 C 85.378906 27.136719 85.742188 27.539062 86.191406 27.75 C 86.441406 27.863281 87.316406 28.152344 87.371094 28.351562 C 87.507812 28.628906 87.445312 29.328125 87.246094 29.574219 C 86.925781 29.972656 86.050781 29.335938 85.628906 29.007812 C 85.605469 28.984375 85.421875 28.871094 85.171875 28.722656 C 84.898438 28.554688 84.296875 28.273438 83.890625 28.085938 C 83.6875 27.996094 83.257812 27.84375 83.132812 27.808594 C 82.691406 27.675781 81.285156 27.328125 81.5625 28.324219 C 81.570312 28.335938 81.601562 28.390625 81.648438 28.421875 C 81.789062 28.523438 82.132812 28.746094 82.515625 28.957031 C 82.882812 29.160156 84.570312 29.679688 85.191406 30.011719 C 85.773438 30.328125 86.445312 30.484375 86.941406 30.949219 C 87.148438 31.144531 87.226562 31.316406 87.269531 31.5 C 87.3125 31.675781 87.527344 32.761719 87.527344 33.148438 C 87.527344 34.132812 87.273438 35.296875 87.042969 36.042969 C 86.804688 36.8125 86.125 38.082031 87.371094 38.128906 C 88.609375 38.175781 88.566406 34.09375 88.636719 33.195312 C 88.660156 32.921875 88.753906 31.695312 89.292969 32.144531 C 90.191406 32.898438 89.957031 34.121094 90.066406 35.128906 C 90.097656 35.414062 90.347656 35.496094 90.597656 35.570312 C 90.679688 35.59375 91.003906 35.582031 91.042969 35.519531 C 91.25 35.191406 91.277344 34.777344 91.257812 34.398438 C 91.222656 33.742188 90.910156 32.828125 91.167969 32.175781 C 91.351562 31.796875 91.628906 31.671875 91.765625 32.128906 C 91.769531 32.152344 91.773438 32.164062 91.78125 32.179688 C 91.816406 32.320312 91.875 32.75 91.871094 32.839844 C 91.859375 33.578125 92.136719 35.53125 92.175781 35.582031 C 92.464844 35.964844 92.996094 36.175781 93.371094 35.664062 C 93.5 35.511719 93.300781 35.019531 93.253906 34.792969 M 91.648438 29.6875 C 91.601562 30.480469 90.761719 31.019531 90.097656 31.386719 C 89.449219 31.75 88.585938 30.894531 88.441406 30.351562 C 88.367188 30.089844 88.300781 29.261719 88.535156 29.074219 C 88.808594 28.855469 89.199219 29.027344 89.46875 28.800781 C 89.496094 28.785156 89.527344 28.660156 89.519531 28.625 C 89.425781 27.84375 90.613281 28.335938 91.234375 28.828125 C 91.421875 28.972656 91.65625 29.542969 91.648438 29.6875 "/>
<path fill-rule="evenodd" fill="rgb(100%, 100%, 100%)" fill-opacity="1" d="M 56.792969 67.644531 L 52.34375 67.644531 C 52.03125 67.644531 51.777344 67.917969 51.777344 68.253906 L 51.777344 69.554688 C 51.777344 69.890625 52.03125 70.164062 52.34375 70.164062 L 54.089844 70.167969 L 55.835938 70.167969 C 55.980469 70.167969 56.101562 70.273438 56.101562 70.402344 L 56.101562 70.8125 C 56.101562 70.9375 55.984375 71.042969 55.835938 71.042969 L 53.289062 71.042969 C 53.1875 71.042969 53.101562 70.988281 53.058594 70.910156 L 51.777344 70.910156 L 51.777344 71.160156 C 51.777344 71.492188 52.03125 71.765625 52.34375 71.765625 L 56.792969 71.765625 C 57.101562 71.765625 57.351562 71.492188 57.351562 71.152344 L 57.351562 68.253906 C 57.351562 67.917969 57.101562 67.644531 56.792969 67.644531 M 56.101562 69.183594 C 56.101562 69.3125 55.984375 69.421875 55.835938 69.421875 L 53.292969 69.421875 C 53.148438 69.421875 53.03125 69.3125 53.03125 69.183594 L 53.03125 68.597656 C 53.03125 68.46875 53.148438 68.363281 53.292969 68.363281 L 55.835938 68.363281 C 55.980469 68.363281 56.101562 68.472656 56.101562 68.597656 Z M 56.101562 69.183594 "/>
<path fill-rule="evenodd" fill="rgb(100%, 100%, 100%)" fill-opacity="1" d="M 59.488281 71.765625 L 63.9375 71.765625 C 64.246094 71.765625 64.5 71.492188 64.5 71.152344 L 64.5 69.855469 C 64.5 69.519531 64.246094 69.246094 63.9375 69.246094 L 60.441406 69.246094 C 60.296875 69.246094 60.179688 69.132812 60.179688 69.003906 L 60.179688 68.597656 C 60.179688 68.46875 60.292969 68.363281 60.441406 68.363281 L 62.988281 68.363281 C 63.089844 68.363281 63.175781 68.417969 63.21875 68.496094 L 64.5 68.496094 L 64.5 68.25 C 64.5 67.914062 64.246094 67.644531 63.9375 67.644531 L 59.488281 67.644531 C 59.179688 67.644531 58.925781 67.917969 58.925781 68.257812 L 58.925781 71.152344 C 58.925781 71.492188 59.179688 71.765625 59.488281 71.765625 M 60.179688 70.226562 C 60.179688 70.097656 60.292969 69.988281 60.441406 69.988281 L 62.984375 69.988281 C 63.132812 69.988281 63.25 70.097656 63.25 70.226562 L 63.25 70.8125 C 63.25 70.9375 63.132812 71.042969 62.984375 71.042969 L 60.441406 71.042969 C 60.296875 71.042969 60.179688 70.933594 60.179688 70.808594 Z M 60.179688 70.226562 "/>
<path fill-rule="evenodd" fill="rgb(100%, 100%, 100%)" fill-opacity="1" d="M 6.363281 53.460938 C 6.347656 53.152344 6.375 52.425781 6.382812 51.933594 C 6.679688 51.96875 7.035156 51.996094 7.398438 52.007812 L 7.398438 52.046875 C 7.078125 52.433594 6.875 52.960938 6.902344 53.53125 C 6.925781 54.03125 7.183594 54.347656 7.621094 54.324219 C 7.929688 54.3125 8.113281 54.171875 8.320312 53.878906 C 8.628906 53.441406 8.8125 52.925781 9.175781 52.449219 C 9.585938 51.921875 9.992188 51.792969 10.492188 51.769531 C 10.984375 51.742188 11.949219 51.976562 12.035156 53.816406 C 12.050781 54.164062 12.058594 54.707031 12.03125 55.167969 C 11.773438 55.109375 11.402344 55.050781 11.054688 55.003906 L 11.054688 54.960938 C 11.320312 54.714844 11.527344 54.429688 11.5 53.785156 C 11.46875 53.171875 11.117188 52.886719 10.757812 52.902344 C 10.324219 52.921875 10.082031 52.996094 9.5625 54.054688 C 8.917969 55.378906 8.507812 55.429688 7.992188 55.457031 C 7.371094 55.484375 6.441406 55.183594 6.363281 53.460938 "/>
<path fill-rule="evenodd" fill="rgb(100%, 100%, 100%)" fill-opacity="1" d="M 10.0625 60.75 C 9.421875 60.847656 7.964844 61.113281 7.363281 61.339844 C 7.332031 61.011719 7.3125 60.894531 7.273438 60.652344 C 7.242188 60.46875 7.214844 60.296875 7.121094 59.894531 C 7.894531 59.835938 9.050781 59.675781 9.648438 59.578125 C 9.597656 59.171875 9.574219 58.976562 9.523438 58.671875 C 9.472656 58.363281 9.414062 58.070312 9.34375 57.730469 C 8.445312 57.890625 7.667969 58.027344 6.847656 58.261719 C 6.824219 57.949219 6.785156 57.710938 6.761719 57.578125 C 6.726562 57.382812 6.703125 57.21875 6.609375 56.824219 C 7.378906 56.78125 8.726562 56.589844 9.335938 56.492188 C 9.925781 56.390625 11.871094 56.121094 12.050781 55.8125 L 12.085938 55.804688 C 12.121094 56.140625 12.152344 56.351562 12.191406 56.589844 C 12.230469 56.835938 12.28125 57.082031 12.339844 57.335938 C 11.785156 57.324219 10.996094 57.453125 9.964844 57.628906 C 10.015625 58.066406 10.042969 58.242188 10.09375 58.558594 C 10.144531 58.863281 10.171875 59.007812 10.273438 59.472656 C 11.511719 59.257812 12.082031 59.179688 12.570312 58.871094 L 12.59375 58.875 C 12.617188 59.148438 12.648438 59.347656 12.699219 59.660156 C 12.742188 59.898438 12.800781 60.214844 12.851562 60.414062 C 12.125 60.4375 10.808594 60.632812 10.0625 60.75 "/>
<path fill-rule="evenodd" fill="rgb(100%, 100%, 100%)" fill-opacity="1" d="M 8.871094 66.457031 C 8.789062 66.207031 8.722656 65.984375 8.613281 65.71875 C 9.179688 65.519531 9.988281 65.019531 10.367188 64.777344 C 10.304688 64.515625 10.238281 64.265625 10.164062 64.027344 C 10.089844 63.789062 9.996094 63.527344 9.929688 63.347656 C 9.464844 63.347656 8.472656 63.398438 7.976562 63.644531 C 7.898438 63.359375 7.875 63.21875 7.8125 63.015625 C 7.742188 62.792969 7.675781 62.597656 7.585938 62.371094 C 7.929688 62.449219 8.542969 62.519531 8.800781 62.542969 C 9.335938 62.582031 10.089844 62.632812 10.679688 62.660156 C 11.214844 62.683594 12.070312 62.707031 12.734375 62.714844 C 12.925781 62.71875 13.238281 62.730469 13.40625 62.613281 L 13.453125 62.601562 C 13.535156 62.863281 13.605469 63.066406 13.664062 63.230469 C 13.746094 63.464844 13.832031 63.691406 13.933594 63.933594 C 13.773438 64.007812 13.484375 64.179688 13.230469 64.339844 C 12.726562 64.652344 12.105469 65.0625 11.632812 65.378906 C 10.847656 65.90625 10.398438 66.21875 10.007812 66.511719 C 9.839844 66.632812 9.429688 66.945312 9.097656 67.292969 C 9.007812 66.941406 8.941406 66.699219 8.871094 66.457031 M 12.496094 63.371094 L 12.488281 63.339844 C 11.777344 63.316406 11.15625 63.3125 10.5 63.324219 C 10.546875 63.535156 10.585938 63.699219 10.644531 63.890625 C 10.730469 64.160156 10.773438 64.269531 10.847656 64.464844 C 11.398438 64.125 11.976562 63.738281 12.496094 63.371094 "/>
<path fill-rule="evenodd" fill="rgb(100%, 100%, 100%)" fill-opacity="1" d="M 13.664062 71.007812 C 13.316406 71.164062 11.890625 71.796875 11.289062 72.140625 C 11.148438 71.804688 10.984375 71.5 10.804688 71.230469 C 11.242188 70.566406 12.085938 69.390625 12.464844 68.871094 L 13.605469 67.308594 L 13.597656 67.285156 L 12.140625 67.949219 C 11.863281 68.078125 10.402344 68.84375 9.929688 69.214844 C 9.859375 69.019531 9.792969 68.859375 9.710938 68.679688 C 9.632812 68.503906 9.535156 68.3125 9.445312 68.15625 C 10.253906 68.007812 12.222656 67.132812 12.601562 66.960938 C 12.890625 66.828125 14.09375 66.320312 14.492188 65.898438 L 14.527344 65.882812 C 14.613281 66.109375 14.722656 66.363281 14.835938 66.613281 C 14.953125 66.875 15.070312 67.117188 15.179688 67.308594 C 14.894531 67.628906 14.257812 68.394531 13.957031 68.828125 C 13.367188 69.671875 12.988281 70.1875 12.664062 70.65625 L 12.675781 70.679688 L 13.644531 70.238281 C 14.207031 69.984375 15.640625 69.230469 15.917969 68.925781 C 15.964844 69.074219 16.0625 69.308594 16.140625 69.480469 C 16.25 69.714844 16.257812 69.738281 16.394531 69.980469 C 15.6875 70.140625 14.058594 70.824219 13.664062 71.007812 "/>
<path fill-rule="evenodd" fill="rgb(100%, 100%, 100%)" fill-opacity="1" d="M 15.550781 76.753906 C 15.359375 76.863281 14.972656 77.085938 14.601562 77.371094 C 14.054688 76.78125 13.75 76.378906 13.359375 75.757812 C 12.410156 74.257812 12.589844 73.085938 14.339844 71.976562 C 15.414062 71.296875 16.964844 70.890625 18.261719 72.945312 C 18.617188 73.507812 18.996094 74.183594 19.171875 74.523438 C 18.789062 74.621094 18.488281 74.742188 18.132812 74.90625 L 18.101562 74.851562 C 18.238281 74.398438 18.15625 73.777344 17.769531 73.164062 C 17.167969 72.210938 16.171875 72.363281 15.042969 73.078125 C 13.460938 74.074219 13.453125 74.816406 14.007812 75.695312 C 14.261719 76.097656 14.503906 76.003906 14.71875 75.867188 L 15.21875 75.554688 C 15.449219 75.40625 15.726562 75.230469 15.910156 74.878906 L 15.949219 74.867188 C 16.066406 75.078125 16.207031 75.316406 16.339844 75.53125 C 16.515625 75.804688 16.566406 75.886719 16.746094 76.128906 C 16.472656 76.230469 15.914062 76.53125 15.550781 76.753906 "/>
<path fill-rule="evenodd" fill="rgb(100%, 100%, 100%)" fill-opacity="1" d="M 20.398438 80.347656 C 19.898438 80.761719 18.785156 81.738281 18.382812 82.238281 C 18.1875 81.972656 18.109375 81.878906 17.953125 81.691406 C 17.832031 81.546875 17.71875 81.417969 17.429688 81.117188 C 18.066406 80.671875 18.980469 79.945312 19.445312 79.554688 C 19.195312 79.230469 19.074219 79.078125 18.871094 78.839844 C 18.671875 78.601562 18.472656 78.378906 18.234375 78.125 C 17.546875 78.71875 16.949219 79.234375 16.363281 79.855469 C 16.183594 79.597656 16.027344 79.414062 15.9375 79.308594 C 15.8125 79.15625 15.703125 79.035156 15.425781 78.738281 C 16.0625 78.3125 17.125 77.460938 17.597656 77.0625 C 18.054688 76.675781 19.585938 75.445312 19.585938 75.089844 L 19.609375 75.066406 C 19.8125 75.335938 19.945312 75.507812 20.101562 75.6875 C 20.265625 75.878906 20.429688 76.066406 20.609375 76.253906 C 20.128906 76.523438 19.515625 77.046875 18.71875 77.714844 C 18.984375 78.070312 19.101562 78.207031 19.304688 78.449219 C 19.507812 78.6875 19.601562 78.796875 19.925781 79.148438 C 20.882812 78.328125 21.332031 77.96875 21.59375 77.453125 L 21.617188 77.441406 C 21.777344 77.667969 21.90625 77.820312 22.113281 78.066406 C 22.269531 78.25 22.476562 78.488281 22.625 78.636719 C 22.011719 79.027344 20.980469 79.871094 20.398438 80.347656 "/>
<path fill-rule="evenodd" fill="rgb(100%, 100%, 100%)" fill-opacity="1" d="M 22.289062 85.871094 C 22.089844 85.691406 21.917969 85.539062 21.691406 85.363281 C 22.078125 84.902344 22.515625 84.058594 22.71875 83.65625 C 22.53125 83.464844 22.347656 83.285156 22.160156 83.117188 C 21.976562 82.949219 21.761719 82.773438 21.617188 82.65625 C 21.214844 82.886719 20.386719 83.445312 20.085938 83.90625 C 19.871094 83.699219 19.78125 83.59375 19.621094 83.449219 C 19.449219 83.292969 19.292969 83.160156 19.101562 83.011719 C 19.433594 82.902344 20 82.652344 20.230469 82.539062 C 20.714844 82.300781 21.386719 81.957031 21.910156 81.679688 C 22.378906 81.429688 23.132812 81.011719 23.703125 80.675781 C 23.871094 80.585938 24.144531 80.4375 24.230469 80.25 L 24.265625 80.210938 C 24.46875 80.398438 24.632812 80.539062 24.765625 80.648438 C 24.957031 80.808594 25.148438 80.957031 25.355469 81.113281 C 25.257812 81.257812 25.09375 81.554688 24.960938 81.820312 C 24.6875 82.351562 24.359375 83.015625 24.117188 83.527344 C 23.710938 84.390625 23.480469 84.882812 23.292969 85.332031 C 23.210938 85.523438 23.019531 86.003906 22.910156 86.46875 C 22.65625 86.214844 22.472656 86.042969 22.289062 85.871094 M 23.835938 81.367188 L 23.808594 81.339844 C 23.183594 81.683594 22.652344 81.996094 22.09375 82.34375 C 22.242188 82.5 22.355469 82.621094 22.503906 82.75 C 22.714844 82.945312 22.808594 83.015625 22.972656 83.148438 C 23.273438 82.574219 23.574219 81.949219 23.835938 81.367188 "/>
<path fill-rule="evenodd" fill="rgb(100%, 100%, 100%)" fill-opacity="1" d="M 24.351562 87.476562 C 24.144531 87.324219 24 87.226562 23.703125 87.019531 C 24.367188 86.335938 25.078125 85.398438 25.46875 84.878906 C 26.023438 84.136719 26.820312 83.132812 26.941406 82.527344 L 26.957031 82.503906 C 27.160156 82.679688 27.335938 82.824219 27.53125 82.972656 C 27.734375 83.121094 27.964844 83.273438 28.210938 83.445312 C 27.6875 83.949219 26.761719 85.191406 26.574219 85.441406 C 26.265625 85.859375 25.371094 87.035156 24.902344 87.921875 C 24.609375 87.683594 24.472656 87.570312 24.351562 87.476562 "/>
<path fill-rule="evenodd" fill="rgb(100%, 100%, 100%)" fill-opacity="1" d="M 30.816406 88.335938 C 30.433594 88.996094 30.007812 89.746094 29.851562 90.015625 C 29.382812 90.828125 28.644531 91.179688 26.867188 90.390625 L 27.039062 89.894531 C 27.757812 90.210938 28.195312 90.214844 28.683594 89.511719 C 28.863281 89.253906 29.261719 88.574219 29.558594 88.0625 C 30.074219 87.175781 30.914062 85.878906 30.921875 85.277344 L 30.945312 85.242188 C 31.195312 85.40625 31.417969 85.542969 31.625 85.664062 C 31.832031 85.785156 32.039062 85.894531 32.296875 86.023438 C 31.757812 86.640625 31.125 87.804688 30.816406 88.335938 "/>
<path fill-rule="evenodd" fill="rgb(100%, 100%, 100%)" fill-opacity="1" d="M 32.179688 92.21875 C 31.847656 92.035156 31.695312 91.949219 31.558594 91.882812 C 31.324219 91.769531 31.167969 91.699219 30.835938 91.554688 C 31.363281 90.753906 31.886719 89.707031 32.175781 89.121094 C 32.582031 88.289062 33.179688 87.15625 33.1875 86.535156 L 33.195312 86.515625 C 33.429688 86.648438 33.625 86.753906 33.851562 86.863281 C 34.074219 86.972656 34.328125 87.078125 34.605469 87.207031 C 34.179688 87.796875 33.503906 89.191406 33.367188 89.46875 C 33.140625 89.933594 32.480469 91.257812 32.179688 92.21875 "/>
<path fill-rule="evenodd" fill="rgb(100%, 100%, 100%)" fill-opacity="1" d="M 37.035156 94.160156 C 36.785156 94.066406 36.566406 93.984375 36.292969 93.90625 C 36.480469 93.335938 36.582031 92.394531 36.621094 91.941406 C 36.378906 91.832031 36.140625 91.730469 35.90625 91.644531 C 35.671875 91.558594 35.40625 91.472656 35.226562 91.414062 C 34.9375 91.777344 34.371094 92.601562 34.261719 93.136719 C 33.988281 93.027344 33.867188 92.957031 33.664062 92.882812 C 33.445312 92.804688 33.25 92.734375 33.019531 92.667969 C 33.289062 92.441406 33.722656 92.003906 33.894531 91.8125 C 34.257812 91.417969 34.761719 90.851562 35.140625 90.398438 C 35.488281 89.992188 36.035156 89.332031 36.445312 88.808594 C 36.566406 88.664062 36.765625 88.421875 36.777344 88.21875 L 36.796875 88.167969 C 37.054688 88.269531 37.261719 88.339844 37.421875 88.394531 C 37.660156 88.472656 37.890625 88.542969 38.140625 88.609375 C 38.105469 88.78125 38.0625 89.117188 38.03125 89.410156 C 37.972656 90.003906 37.914062 90.746094 37.875 91.308594 C 37.808594 92.257812 37.777344 92.800781 37.769531 93.289062 C 37.765625 93.496094 37.761719 94.015625 37.832031 94.488281 C 37.496094 94.347656 37.265625 94.25 37.035156 94.160156 M 36.820312 89.398438 L 36.785156 89.390625 C 36.332031 89.933594 35.953125 90.421875 35.558594 90.953125 C 35.753906 91.042969 35.90625 91.109375 36.089844 91.179688 C 36.355469 91.277344 36.472656 91.3125 36.671875 91.375 C 36.738281 90.730469 36.789062 90.039062 36.820312 89.398438 "/>
<path fill-rule="evenodd" fill="rgb(100%, 100%, 100%)" fill-opacity="1" d="M 44.332031 93.210938 C 44.039062 94.460938 43.335938 95.878906 41.09375 95.355469 C 39.734375 95.035156 38.609375 94.355469 39.148438 92.0625 C 39.460938 90.726562 40.160156 89.332031 42.394531 89.855469 C 44.308594 90.304688 44.75 91.449219 44.332031 93.210938 M 40.421875 92.367188 C 40.125 93.632812 40.265625 94.585938 41.21875 94.8125 C 42.347656 95.074219 42.796875 94.015625 43.054688 92.929688 C 43.292969 91.90625 43.390625 90.664062 42.300781 90.40625 C 41.199219 90.152344 40.699219 91.179688 40.421875 92.367188 "/>
<path fill-rule="evenodd" fill="rgb(100%, 100%, 100%)" fill-opacity="1" d="M 51.367188 91.757812 L 51.316406 91.753906 C 51.132812 91.65625 50.554688 91.507812 49.839844 91.46875 C 49.828125 91.644531 49.742188 92.75 49.675781 93.9375 C 49.613281 95.101562 49.660156 96.292969 49.691406 96.484375 C 49.347656 96.449219 49.253906 96.4375 48.953125 96.421875 C 48.695312 96.402344 48.503906 96.394531 48.183594 96.402344 C 48.347656 95.6875 48.445312 94.164062 48.476562 93.605469 C 48.511719 93.015625 48.550781 91.945312 48.574219 91.398438 C 47.972656 91.367188 47.195312 91.386719 46.960938 91.515625 L 46.910156 91.511719 C 46.976562 91.277344 47.042969 90.945312 47.058594 90.730469 C 47.855469 90.824219 48.507812 90.867188 49.238281 90.910156 C 50.03125 90.953125 50.796875 90.996094 51.582031 90.980469 C 51.496094 91.164062 51.425781 91.484375 51.367188 91.757812 "/>
<path fill-rule="evenodd" fill="rgb(100%, 100%, 100%)" fill-opacity="1" d="M 56.917969 93.464844 C 57 94.742188 56.738281 96.308594 54.445312 96.457031 C 53.050781 96.550781 51.773438 96.226562 51.621094 93.875 C 51.535156 92.507812 51.792969 90.96875 54.085938 90.820312 C 56.046875 90.691406 56.800781 91.65625 56.917969 93.464844 M 52.929688 93.800781 C 53.015625 95.09375 53.425781 95.964844 54.40625 95.898438 C 55.558594 95.824219 55.683594 94.679688 55.609375 93.566406 C 55.542969 92.519531 55.273438 91.300781 54.15625 91.375 C 53.027344 91.449219 52.851562 92.582031 52.929688 93.800781 "/>
<path fill-rule="evenodd" fill="rgb(100%, 100%, 100%)" fill-opacity="1" d="M 62.164062 92.574219 C 62.238281 92.945312 62.53125 94.472656 62.726562 95.140625 C 62.375 95.203125 62.039062 95.296875 61.738281 95.410156 C 61.1875 94.835938 60.226562 93.746094 59.8125 93.261719 L 58.546875 91.792969 L 58.523438 91.796875 L 58.839844 93.367188 C 58.902344 93.664062 59.324219 95.265625 59.574219 95.804688 C 59.367188 95.832031 59.199219 95.859375 59.003906 95.898438 C 58.820312 95.933594 58.609375 95.984375 58.433594 96.039062 C 58.46875 95.21875 58.066406 93.105469 57.980469 92.695312 C 57.917969 92.382812 57.691406 91.09375 57.375 90.613281 L 57.367188 90.574219 C 57.609375 90.542969 57.878906 90.496094 58.148438 90.441406 C 58.429688 90.386719 58.6875 90.320312 58.90625 90.261719 C 59.152344 90.613281 59.753906 91.40625 60.105469 91.792969 C 60.796875 92.558594 61.210938 93.042969 61.601562 93.46875 L 61.621094 93.464844 L 61.410156 92.417969 C 61.289062 91.8125 60.878906 90.246094 60.644531 89.910156 C 60.800781 89.894531 61.046875 89.851562 61.230469 89.816406 C 61.488281 89.765625 61.511719 89.757812 61.777344 89.675781 C 61.773438 90.40625 62.078125 92.148438 62.164062 92.574219 "/>
<path fill-rule="evenodd" fill="rgb(100%, 100%, 100%)" fill-opacity="1" d="M 68.1875 92.054688 C 68.25 92.265625 68.378906 92.691406 68.574219 93.113281 C 67.871094 93.515625 67.414062 93.71875 66.71875 93.957031 C 65.042969 94.535156 63.9375 94.089844 63.265625 92.136719 C 62.847656 90.933594 62.804688 89.328125 65.105469 88.539062 C 65.734375 88.324219 66.480469 88.105469 66.851562 88.015625 C 66.859375 88.410156 66.90625 88.734375 66.980469 89.113281 L 66.925781 89.132812 C 66.515625 88.894531 65.890625 88.832031 65.207031 89.066406 C 64.136719 89.4375 64.054688 90.4375 64.492188 91.703125 C 65.101562 93.472656 65.820312 93.648438 66.808594 93.308594 C 67.253906 93.15625 67.222656 92.898438 67.136719 92.65625 L 66.945312 92.097656 C 66.859375 91.84375 66.75 91.53125 66.449219 91.273438 L 66.445312 91.230469 C 66.675781 91.164062 66.941406 91.082031 67.175781 91 C 67.488281 90.894531 67.578125 90.863281 67.855469 90.742188 C 67.890625 91.035156 68.054688 91.644531 68.1875 92.054688 "/>
<path fill-rule="evenodd" fill="rgb(100%, 100%, 100%)" fill-opacity="1" d="M 74.214844 86.113281 C 74.511719 86.667969 74.859375 87.328125 75.171875 87.878906 C 75.6875 88.773438 75.6875 89.683594 74.191406 90.535156 C 72.617188 91.433594 71.921875 91.046875 71.351562 90.050781 C 71.207031 89.792969 70.828125 89.101562 70.5625 88.636719 C 70.375 88.308594 69.753906 87.132812 69.324219 86.886719 L 69.3125 86.863281 C 69.515625 86.765625 69.765625 86.632812 69.992188 86.507812 C 70.214844 86.378906 70.394531 86.273438 70.675781 86.089844 C 70.890625 86.777344 71.632812 88.054688 71.820312 88.390625 C 72.296875 89.222656 72.617188 89.761719 72.824219 89.949219 C 73.109375 90.210938 73.558594 90.25 73.996094 90.003906 C 75.019531 89.417969 74.742188 88.773438 74.121094 87.691406 C 73.257812 86.171875 72.953125 85.589844 72.390625 85.109375 C 72.554688 85.03125 72.699219 84.957031 72.960938 84.808594 C 73.195312 84.675781 73.320312 84.597656 73.488281 84.480469 C 73.695312 85.183594 74.035156 85.785156 74.214844 86.113281 "/>
<path fill-rule="evenodd" fill="rgb(100%, 100%, 100%)" fill-opacity="1" d="M 79.226562 83.796875 C 79.457031 84.09375 80.390625 85.339844 80.859375 85.855469 C 80.566406 86.066406 80.304688 86.296875 80.082031 86.53125 C 79.339844 86.253906 78 85.695312 77.414062 85.441406 L 75.632812 84.675781 L 75.613281 84.691406 L 76.589844 85.960938 C 76.769531 86.203125 77.851562 87.453125 78.316406 87.832031 C 78.140625 87.945312 78 88.042969 77.839844 88.167969 C 77.691406 88.28125 77.523438 88.417969 77.390625 88.542969 C 77.0625 87.789062 75.777344 86.066406 75.523438 85.730469 C 75.328125 85.476562 74.558594 84.421875 74.0625 84.128906 L 74.039062 84.097656 C 74.242188 83.960938 74.464844 83.800781 74.683594 83.632812 C 74.910156 83.460938 75.117188 83.292969 75.285156 83.144531 C 75.664062 83.351562 76.546875 83.796875 77.035156 83.996094 C 77.992188 84.378906 78.578125 84.632812 79.109375 84.847656 L 79.128906 84.832031 L 78.480469 83.984375 C 78.105469 83.496094 77.054688 82.261719 76.695312 82.0625 C 76.828125 81.980469 77.03125 81.835938 77.183594 81.71875 C 77.386719 81.566406 77.40625 81.546875 77.609375 81.359375 C 77.929688 82.015625 78.964844 83.449219 79.226562 83.796875 "/>
<path fill-rule="evenodd" fill="rgb(100%, 100%, 100%)" fill-opacity="1" d="M 82.621094 84.230469 C 82.433594 84.40625 82.3125 84.53125 82.058594 84.789062 C 81.496094 84.015625 80.699219 83.152344 80.257812 82.679688 C 79.625 82 78.773438 81.039062 78.199219 80.816406 L 78.179688 80.796875 C 78.386719 80.625 78.558594 80.480469 78.738281 80.304688 C 78.921875 80.136719 79.113281 79.9375 79.328125 79.726562 C 79.726562 80.328125 80.792969 81.457031 81.007812 81.683594 C 81.359375 82.0625 82.363281 83.148438 83.15625 83.765625 C 82.867188 84.015625 82.734375 84.125 82.621094 84.230469 "/>
<path fill-rule="evenodd" fill="rgb(100%, 100%, 100%)" fill-opacity="1" d="M 83.40625 76.789062 C 83.667969 77.246094 84.078125 77.949219 84.429688 78.5625 C 84.785156 79.179688 85.488281 80.402344 85.800781 80.925781 C 85.589844 81.152344 85.382812 81.417969 85.210938 81.691406 C 84.332031 81.28125 83.4375 80.890625 82.515625 80.492188 C 81.796875 80.1875 81.117188 79.894531 80.632812 79.707031 C 80.339844 79.589844 79.929688 79.457031 79.726562 79.460938 L 79.703125 79.441406 C 79.886719 79.269531 80.082031 79.0625 80.265625 78.84375 C 80.460938 78.625 80.644531 78.410156 80.804688 78.207031 C 80.976562 78.359375 81.285156 78.542969 81.503906 78.667969 C 81.859375 78.871094 82.5 79.164062 83.195312 79.46875 C 83.707031 79.695312 84.070312 79.871094 84.507812 80.035156 L 84.527344 80.011719 C 84.3125 79.621094 83.847656 78.875 83.617188 78.515625 C 83.039062 77.644531 82.589844 77.003906 82.128906 76.714844 C 82.285156 76.566406 82.410156 76.4375 82.558594 76.273438 C 82.703125 76.109375 82.816406 75.980469 82.953125 75.789062 C 83.078125 76.15625 83.257812 76.515625 83.40625 76.789062 "/>
<path fill-rule="evenodd" fill="rgb(100%, 100%, 100%)" fill-opacity="1" d="M 89.78125 75.734375 C 89.277344 76.394531 88.984375 76.820312 88.667969 77.269531 C 88.328125 77.75 88.226562 77.890625 87.707031 78.671875 C 87.070312 78.078125 86.421875 77.605469 85.542969 76.984375 C 84.636719 76.34375 83.527344 75.507812 83.136719 75.539062 L 83.117188 75.523438 C 83.476562 75.050781 83.9375 74.402344 84.199219 74.035156 C 84.40625 73.742188 84.761719 73.222656 85.222656 72.546875 C 85.324219 72.710938 85.601562 72.972656 85.769531 73.089844 L 85.75 73.117188 C 85.378906 73.386719 84.910156 73.953125 84.417969 74.644531 C 84.820312 75.007812 85.566406 75.511719 85.921875 75.761719 C 86.234375 75.320312 86.476562 74.964844 86.722656 74.457031 C 86.878906 74.625 87.097656 74.824219 87.300781 74.976562 C 86.863281 75.339844 86.601562 75.726562 86.359375 76.066406 L 87.160156 76.625 C 87.917969 77.164062 88.097656 77.152344 88.390625 76.738281 C 88.765625 76.210938 89.074219 75.628906 89.148438 75.152344 L 89.179688 75.109375 C 89.382812 75.390625 89.566406 75.554688 89.78125 75.734375 "/>
<path fill-rule="evenodd" fill="rgb(100%, 100%, 100%)" fill-opacity="1" d="M 92.269531 71.277344 C 92.148438 71.507812 92.0625 71.695312 91.917969 71.980469 C 91.492188 71.835938 91.027344 71.730469 90.5 71.628906 C 89.972656 71.53125 89.585938 71.476562 89.375 71.566406 C 89.164062 71.660156 89.054688 71.882812 88.890625 72.199219 C 89.296875 72.398438 90.648438 73.113281 91.214844 73.277344 C 91.082031 73.480469 90.945312 73.710938 90.824219 73.9375 C 90.699219 74.164062 90.59375 74.378906 90.496094 74.589844 C 89.855469 74.105469 88.507812 73.382812 88.082031 73.152344 C 87.355469 72.753906 86.03125 72.003906 85.59375 72.003906 L 85.574219 71.992188 C 85.796875 71.605469 85.957031 71.300781 86.167969 70.914062 C 86.414062 70.46875 86.585938 70.128906 86.847656 69.652344 C 87.382812 68.667969 88.046875 68.648438 88.644531 68.972656 C 89.265625 69.308594 89.605469 69.976562 89.296875 70.789062 L 89.308594 70.796875 C 89.542969 70.402344 89.851562 70.296875 90.21875 70.339844 C 90.476562 70.371094 90.550781 70.382812 91 70.449219 C 91.578125 70.539062 92.28125 70.65625 92.632812 70.5625 L 92.675781 70.585938 C 92.492188 70.886719 92.371094 71.097656 92.269531 71.277344 M 87.007812 70.441406 C 86.886719 70.664062 86.804688 70.828125 86.75 70.984375 C 87.070312 71.199219 87.496094 71.429688 87.621094 71.496094 C 87.9375 71.667969 88.113281 71.773438 88.410156 71.9375 C 88.515625 71.757812 88.578125 71.65625 88.652344 71.527344 C 88.917969 71.035156 88.886719 70.578125 88.136719 70.171875 C 87.503906 69.824219 87.179688 70.125 87.007812 70.441406 "/>
<path fill-rule="evenodd" fill="rgb(100%, 100%, 100%)" fill-opacity="1" d="M 93.546875 68.535156 C 93.429688 68.820312 93.105469 69.472656 92.890625 69.917969 C 92.636719 69.757812 92.324219 69.585938 92 69.425781 L 92.015625 69.386719 C 92.46875 69.167969 92.875 68.777344 93.089844 68.25 C 93.277344 67.785156 93.171875 67.386719 92.769531 67.222656 C 92.480469 67.105469 92.253906 67.152344 91.945312 67.335938 C 91.480469 67.605469 91.097656 68 90.570312 68.277344 C 89.972656 68.585938 89.550781 68.535156 89.085938 68.34375 C 88.628906 68.160156 87.851562 67.546875 88.546875 65.835938 C 88.675781 65.519531 88.894531 65.019531 89.113281 64.617188 C 89.320312 64.777344 89.636719 64.984375 89.929688 65.171875 L 89.914062 65.210938 C 89.570312 65.324219 89.261719 65.496094 89.019531 66.09375 C 88.789062 66.660156 88.984375 67.066406 89.320312 67.203125 C 89.726562 67.367188 89.976562 67.402344 90.890625 66.65625 C 92.03125 65.726562 92.421875 65.847656 92.902344 66.042969 C 93.480469 66.273438 94.195312 66.9375 93.546875 68.535156 "/>
<path fill-rule="evenodd" fill="rgb(100%, 100%, 100%)" fill-opacity="1" d="M 94.867188 64.703125 C 94.789062 64.953125 94.746094 65.117188 94.65625 65.46875 C 93.78125 65.066406 92.660156 64.714844 92.042969 64.519531 C 91.15625 64.242188 89.945312 63.832031 89.332031 63.921875 L 89.308594 63.914062 C 89.402344 63.664062 89.476562 63.453125 89.550781 63.210938 C 89.625 62.972656 89.695312 62.707031 89.777344 62.417969 C 90.417969 62.746094 91.902344 63.195312 92.203125 63.289062 C 92.699219 63.441406 94.105469 63.890625 95.101562 64.039062 C 94.972656 64.394531 94.910156 64.554688 94.867188 64.703125 "/>
<path fill-rule="evenodd" fill="rgb(100%, 100%, 100%)" fill-opacity="1" d="M 91.605469 57.933594 L 91.59375 57.984375 C 91.464844 58.152344 91.226562 58.699219 91.074219 59.398438 C 91.242188 59.4375 92.328125 59.699219 93.484375 59.949219 C 94.621094 60.199219 95.808594 60.347656 96.003906 60.34375 C 95.910156 60.679688 95.882812 60.769531 95.820312 61.0625 C 95.761719 61.316406 95.722656 61.5 95.679688 61.816406 C 95 61.546875 93.507812 61.203125 92.964844 61.082031 C 92.386719 60.957031 91.34375 60.742188 90.800781 60.636719 C 90.675781 61.226562 90.574219 62 90.660156 62.25 L 90.648438 62.296875 C 90.429688 62.195312 90.109375 62.074219 89.902344 62.027344 C 90.121094 61.253906 90.269531 60.617188 90.425781 59.902344 C 90.59375 59.128906 90.757812 58.375 90.871094 57.597656 C 91.039062 57.714844 91.339844 57.832031 91.605469 57.933594 "/>
<path fill-rule="evenodd" fill="rgb(100%, 100%, 100%)" fill-opacity="1" d="M 92.023438 52.402344 C 92.453125 52.738281 92.894531 53.054688 94.476562 54.058594 C 95.015625 54.09375 95.3125 54.117188 95.707031 54.125 C 96.074219 54.125 96.535156 54.125 96.804688 54.074219 C 96.757812 54.382812 96.742188 54.585938 96.726562 54.820312 C 96.703125 55.0625 96.695312 55.191406 96.691406 55.589844 C 96.449219 55.5 95.914062 55.410156 95.636719 55.386719 C 95.242188 55.359375 94.941406 55.3125 94.402344 55.269531 C 93.082031 55.820312 91.953125 56.390625 91.671875 56.535156 C 91.492188 56.621094 91.164062 56.832031 91.039062 56.972656 L 91.003906 56.96875 C 91.042969 56.675781 91.074219 56.394531 91.09375 56.101562 C 91.117188 55.808594 91.128906 55.507812 91.140625 55.179688 C 91.34375 55.1875 91.554688 55.144531 91.730469 55.078125 C 92.171875 54.917969 92.777344 54.734375 93.742188 54.304688 L 93.742188 54.277344 C 93.222656 53.953125 92.460938 53.566406 92.015625 53.363281 C 91.804688 53.257812 91.496094 53.175781 91.289062 53.175781 C 91.324219 52.964844 91.339844 52.820312 91.363281 52.515625 C 91.378906 52.292969 91.394531 52.082031 91.386719 51.878906 C 91.601562 52.09375 91.898438 52.316406 92.023438 52.402344 "/>

</g>
<text x="76" y="148" fill="#fff" font-family="SimSun,宋体,Songti SC,serif" font-size="76" letter-spacing="10">矩阵理论</text>
<g fill="none" stroke="#fff" stroke-width="1.2" opacity="0.1">
<path d="M640 54h18M640 54v132M640 186h18M840 54h-18M840 54v132M840 186h-18"/>
<path d="M690 80h100M690 120h100M690 160h100M710 66v108M750 66v108M790 66v108"/>
</g>
</svg>
